<?xml version="1.0" encoding="utf-8" ?>
<svg baseProfile="full" height="3314" version="1.1" width="2700" xmlns="http://www.w3.org/2000/svg" xmlns:ev="http://www.w3.org/2001/xml-events" xmlns:xlink="http://www.w3.org/1999/xlink"><defs /><g id="guides"><image height="3314" width="2700" x="0" xlink:href="subway_map_Jul18_2700x3314.jpg" y="0" /></g><g fill="none" id="lines" stroke-linecap="round" stroke-width="5"><g id="lines-SIR" stroke="#006cb7"><path d="M559.5 2606.5 C561.0,2615.5 561.36,2628.44 564.5,2636.5 S576.05,2653.08 580.5,2660.5 S596.82,2677.95 594.5,2686.5 S553.32,2766.0 549.5,2774.5 S544.86,2795.81 541.5,2804.5 S529.92,2828.48 525.5,2836.5 S512.75,2857.74 509.5,2862.5 S501.2,2873.08 497.5,2877.5 S480.41,2896.86 473.5,2905.5 S456.09,2927.47 449.5,2937.5 S433.11,2968.02 425.5,2978.5 S406.9,3002.78 396.5,3010.5 S338.27,3044.28 328.5,3050.5 S306.26,3065.92 297.5,3073.5 S271.09,3099.19 261.5,3108.5 S239.81,3131.0 229.5,3139.5 S195.97,3164.32 187.5,3169.5 S166.64,3179.62 157.5,3183.5 S118.61,3195.52 107.5,3203.5 S87.9,3228.7 79.5,3239.5" id="line-523" /></g><g id="lines-1" stroke="#ed3942"><path d="M430.5 243.5 C435.6,266.9 446.14,308.92 447.5,321.5 S446.0,351.71 443.5,363.5 S438.99,392.95 430.5,401.5 S327.44,480.71 317.5,490.5 S303.23,519.78 297.5,532.5 S280.15,571.29 276.5,581.5 S269.72,605.89 267.5,616.5 S259.45,651.99 258.5,667.5 S257.74,757.35 257.5,780.0 S256.79,832.85 256.5,855.5 S255.62,920.2 255.5,935.5 S255.65,971.8 255.5,986.5 S254.5,1020.8 254.5,1035.5 S254.53,1074.21 255.5,1087.5 S259.86,1118.28 261.5,1131.5 S268.39,1182.68 269.5,1200.5 S269.65,1243.05 269.5,1260.0 S268.5,1301.5 268.5,1316.5 S268.04,1351.57 269.5,1366.5 S274.25,1403.6 278.5,1419.0 S290.04,1456.92 298.5,1471.5 S335.48,1524.62 352.5,1546.5 S405.59,1609.59 417.5,1624.5 S450.59,1658.86 455.5,1675.5 S450.22,1721.47 449.5,1733.0 S449.64,1761.0 449.5,1771.5 S448.5,1796.6 448.5,1806.5 S449.36,1829.6 449.5,1839.5 S448.91,1865.77 449.5,1877.0 S449.83,1931.88 455.5,1954.5 S480.0,2009.83 487.5,2028.5 S507.37,2081.26 510.5,2091.5 S515.82,2115.92 517.5,2126.5 S522.06,2154.77 522.5,2167.0 S522.81,2262.84 523.0,2278.0 S514.44,2317.17 524.5,2328.5 S612.0,2392.9 649.5,2420.5" id="line-330" /></g><g id="lines-3" stroke="#ed3942"><path d="M469.5 907.5 C488.4,916.2 521.98,922.25 532.5,936.5 S534.36,980.5 534.5,995.5 S533.64,1032.3 533.5,1045.5 S533.5,1076.6 533.5,1089.5 S544.34,1125.5 533.5,1132.5 S301.26,1224.31 269.5,1260.0 S258.98,1375.39 278.5,1419.0 S447.21,1660.27 455.5,1675.5 S450.02,1715.66 449.5,1733.0 S442.33,1834.4 449.5,1877.0 S512.26,2144.09 522.5,2167.0 S574.88,2193.26 596.5,2206.0 S687.88,2260.31 696.5,2269.5 S682.9,2311.2 695.5,2311.5 S1003.48,2278.54 1032.5,2277.5 S1106.83,2294.24 1127.5,2296.0 S1179.29,2291.23 1196.5,2291.5 S1236.77,2293.97 1253.5,2298.0 S1306.55,2313.64 1323.0,2322.0 S1359.86,2351.08 1372.5,2358.5 S1403.04,2375.15 1417.5,2377.5 S1473.87,2380.43 1489.5,2377.5 S1523.18,2361.91 1537.5,2355.0 S1584.04,2332.92 1603.5,2322.5 S1657.55,2292.61 1678.5,2279.5 S1728.08,2242.97 1746.5,2233.0 S1792.12,2215.44 1811.5,2207.5 S1863.97,2188.12 1879.5,2178.5 S1915.4,2145.53 1924.5,2137.5 S1946.47,2119.61 1955.5,2111.5 S1994.21,2075.12 2002.5,2067.5 S2022.26,2050.17 2030.5,2042.5 S2051.5,2022.2 2060.5,2013.5" id="line-352" /></g><g id="lines-2" stroke="#ed3942"><path d="M857.5 77.5 C857.5,92.5 857.62,117.6 857.5,127.5 S856.5,150.6 856.5,160.5 S856.32,189.95 857.5,202.5 S860.46,233.07 864.5,245.5 S878.31,273.59 884.5,285.5 S910.75,335.54 917.5,347.5 S935.17,374.31 941.5,386.5 S967.09,438.26 971.5,451.5 S979.57,483.58 978.5,497.5 S970.46,549.62 963.0,562.5 S930.25,580.43 923.5,592.5 S920.13,624.68 920.5,638.5 S925.39,687.43 926.5,704.5 S929.42,748.35 928.5,761.5 S923.81,793.59 919.5,804.5 S906.54,828.95 898.5,837.5 S871.4,865.11 856.5,871.5 S771.92,894.03 761.0,896.5 S734.26,897.01 724.0,901.5 S546.47,986.45 534.5,995.5 S533.64,1032.3 533.5,1045.5 S533.5,1076.6 533.5,1089.5 S544.34,1125.5 533.5,1132.5 S301.26,1224.31 269.5,1260.0 S258.98,1375.39 278.5,1419.0 S447.21,1660.27 455.5,1675.5 S450.02,1715.66 449.5,1733.0 S442.33,1834.4 449.5,1877.0 S512.26,2144.09 522.5,2167.0 S574.88,2193.26 596.5,2206.0 S687.88,2260.31 696.5,2269.5 S682.9,2311.2 695.5,2311.5 S1003.48,2278.54 1032.5,2277.5 S1106.83,2294.24 1127.5,2296.0 S1179.29,2291.23 1196.5,2291.5 S1236.77,2293.97 1253.5,2298.0 S1306.55,2313.64 1323.0,2322.0 S1359.86,2351.08 1372.5,2358.5 S1403.04,2375.15 1417.5,2377.5 S1473.87,2380.43 1489.5,2377.5 S1521.6,2355.47 1537.5,2355.0 S1582.12,2369.1 1591.5,2374.5 S1608.98,2392.72 1616.5,2400.5 S1640.22,2425.08 1650.5,2435.5 S1680.3,2465.08 1686.5,2471.5 S1700.41,2486.98 1706.5,2493.5 S1722.63,2510.27 1729.5,2517.5 S1765.9,2556.0 1781.5,2572.5" id="line-359" /></g><g id="lines-5" stroke="#009d56"><path d="M1029.5 125.5 C1028.6,140.8 1027.18,161.19 1026.5,176.5 S1023.37,250.69 1022.5,282.5 S1021.09,379.97 1020.5,396.5 S1021.91,435.87 1016.5,451.5 S971.19,550.08 963.0,562.5 S930.25,580.43 923.5,592.5 S920.13,624.68 920.5,638.5 S925.39,687.43 926.5,704.5 S929.42,748.35 928.5,761.5 S923.81,793.59 919.5,804.5 S906.54,828.95 898.5,837.5 S871.4,865.11 856.5,871.5 S771.92,894.03 761.0,896.5 S732.26,893.94 724.0,901.5 S701.07,937.9 696.5,955.5 S687.34,1018.7 686.5,1046.0 S685.64,1242.1 685.5,1312.0 S686.25,1506.1 685.5,1545.0 S681.08,1635.68 678.5,1674.5 S662.73,1809.8 664.0,1868.0 S690.08,2153.1 689.5,2180.0 S661.24,2248.43 655.5,2263.0 S640.79,2296.69 637.5,2312.0 S600.5,2398.85 626.5,2398.0 S1090.17,2301.95 1127.5,2296.0 S1216.08,2292.62 1253.5,2298.0 S1520.7,2351.2 1537.5,2355.0 S1582.12,2369.1 1591.5,2374.5 S1608.98,2392.72 1616.5,2400.5 S1640.22,2425.08 1650.5,2435.5 S1680.3,2465.08 1686.5,2471.5 S1700.41,2486.98 1706.5,2493.5 S1722.63,2510.27 1729.5,2517.5 S1765.9,2556.0 1781.5,2572.5" id="line-359" /></g><g id="lines-4" stroke="#009d56"><path d="M695.5 251.5 C694.6,269.8 693.7,294.22 692.5,312.5 S689.92,355.3 687.5,373.5 S678.13,423.17 675.5,440.5 S669.37,488.63 668.5,498.5 S667.64,521.6 667.5,531.5 S667.37,556.7 667.5,567.5 S668.36,601.8 668.5,613.5 S668.5,640.8 668.5,652.5 S668.63,679.8 668.5,691.5 S666.35,727.94 667.5,743.5 S674.92,803.0 678.0,820.0 S689.16,858.88 691.5,876.0 S697.2,931.61 696.5,955.5 S687.34,1018.7 686.5,1046.0 S685.64,1242.1 685.5,1312.0 S686.25,1506.1 685.5,1545.0 S681.08,1635.68 678.5,1674.5 S662.73,1809.8 664.0,1868.0 S690.08,2153.1 689.5,2180.0 S661.24,2248.43 655.5,2263.0 S640.79,2296.69 637.5,2312.0 S600.5,2398.85 626.5,2398.0 S1090.17,2301.95 1127.5,2296.0 S1216.08,2292.62 1253.5,2298.0 S1465.52,2364.49 1537.5,2355.0 S1683.8,2269.6 1746.5,2233.0" id="line-345" /></g><g id="lines-7" stroke="#9c3c96"><path d="M1656.5 1072.0 C1640.6,1096.3 1612.98,1138.67 1603.5,1153.0 S1581.47,1186.5 1571.5,1200.5 S1538.83,1245.73 1530.5,1255.5 S1508.35,1276.88 1499.5,1285.0 S1478.57,1303.62 1469.5,1311.5 S1428.34,1347.1 1419.5,1354.5 S1398.41,1371.19 1389.5,1378.5 S1338.92,1420.48 1330.5,1427.5 S1311.14,1444.25 1302.5,1451.0 S1276.04,1471.21 1266.5,1477.5 S1243.83,1491.62 1233.5,1496.5 S1193.81,1516.11 1175.5,1520.5 S1128.67,1527.16 1108.5,1526.5 S1029.66,1498.63 1006.5,1515.0 S993.69,1586.28 992.5,1608.5 S1009.36,1667.77 997.5,1682.5 S953.4,1680.97 934.5,1680.5 S693.31,1674.5 678.5,1674.5 S644.31,1680.43 629.5,1680.5 S507.17,1667.93 455.5,1675.5 S323.9,1716.1 267.5,1733.5" id="line-471" /></g><g id="lines-6" stroke="#009d56"><path d="M1262.5 334.5 C1261.3,348.3 1260.94,366.86 1258.5,380.5 S1251.01,415.33 1245.5,429.5 S1225.33,473.79 1216.5,488.5 S1191.06,524.23 1182.5,534.5 S1161.06,557.16 1151.5,566.5 S1127.19,589.46 1116.5,599.0 S1089.06,622.28 1077.5,632.5 S1044.72,661.28 1034.5,671.5 S1008.47,698.55 1002.5,707.5 S991.6,730.2 988.5,740.5 S976.21,791.61 973.5,804.0 S968.11,833.09 965.5,845.5 S958.95,877.56 955.5,889.5 S948.91,918.52 941.5,928.5 S917.18,954.08 903.5,959.5 S856.11,968.94 835.5,970.5 S769.22,959.23 745.0,971.5 S692.38,1034.34 686.5,1046.0 S685.65,1076.45 685.5,1089.5 S685.5,1121.0 685.5,1134.5 S685.62,1190.1 685.5,1204.5 S684.5,1238.1 684.5,1252.5 S685.37,1294.15 685.5,1312.0 S685.5,1373.6 685.5,1392.5 S685.5,1436.6 685.5,1455.5 S685.62,1525.95 685.5,1545.0 S685.53,1589.48 684.5,1608.5 S681.48,1654.84 678.5,1674.5 S665.86,1731.9 664.5,1740.5 S663.5,1760.79 663.5,1769.5 S664.44,1795.4 664.5,1806.5 S662.53,1855.66 664.0,1868.0 S674.35,1895.26 676.5,1907.5 S685.92,1986.23 687.5,2001.5 S690.62,2037.18 691.5,2052.5 S693.75,2090.29 693.5,2106.5 S690.7,2157.95 689.5,2180.0" id="line-411" /></g><g id="lines-A" stroke="#006ab8"><path d="M2193.5 1736.5 C2228.3,1772.2 2302.94,1846.52 2309.5,1855.5 S2305.43,1881.58 2307.5,1892.5 S2323.39,1944.36 2330.5,1966.5 S2428.17,2292.82 2446.5,2325.5 S2549.39,2374.85 2560.5,2376.5 S2574.19,2354.03 2581.5,2345.5 S2606.35,2323.39 2614.5,2313.5 S2632.32,2288.59 2637.5,2277.5 S2647.54,2245.89 2649.5,2238.5 S2653.0,2221.0 2654.5,2213.5" id="line-209" /><path d="M2446.5 2325.5 C2462.7,2373.2 2497.79,2470.24 2500.5,2484.5 S2491.22,2517.16 2485.5,2530.5 S2468.76,2562.46 2461.5,2575.5 S2444.0,2605.6 2436.5,2618.5" id="line-203" /><path d="M267.5 533.5 C256.4,547.6 239.23,567.89 230.5,580.5 S209.14,612.28 204.5,624.5 S195.96,654.52 197.5,667.5 S207.88,709.34 216.5,725.5 S247.0,762.44 257.5,780.0 S331.55,903.82 341.5,934.5 S342.5,1009.75 342.5,1042.0 S341.74,1509.09 341.5,1546.0 S338.81,1649.8 338.5,1669.0 S337.92,1713.81 338.5,1733.0 S317.11,1838.11 344.5,1868.0 S519.95,1930.55 547.0,1960.5 S548.61,2073.34 549.5,2095.0 S542.34,2149.78 555.5,2167.0 S628.57,2252.07 672.5,2256.0 S1013.2,2209.98 1047.5,2211.0 S1121.53,2252.72 1145.5,2270.0 S1190.62,2341.27 1219.5,2335.0 S1492.29,2207.9 1532.5,2186.0 S1620.33,2125.08 1656.5,2097.0 S1767.42,1985.04 1827.5,1957.0 S2060.46,1906.75 2076.5,1901.0 S2101.49,1869.96 2110.5,1855.5 S2130.87,1814.58 2138.5,1801.5 S2159.63,1767.62 2166.5,1759.5 S2185.3,1743.28 2193.5,1736.5 S2241.29,1697.76 2253.5,1687.5 S2281.44,1662.93 2293.5,1652.5 S2322.2,1628.0 2334.5,1617.5" id="line-195" /></g><g id="lines-C" stroke="#006ab8"><path d="M257.5 780.0 C266.2,789.75 278.15,802.45 286.5,812.5 S320.16,847.01 328.5,865.5 S339.66,915.99 341.5,934.5 S341.37,982.85 341.5,996.5 S342.5,1028.35 342.5,1042.0 S341.64,1076.9 341.5,1089.5 S341.5,1118.9 341.5,1131.5 S341.5,1181.5 341.5,1199.5 S341.5,1242.4 341.5,1259.5 S341.5,1304.8 341.5,1316.5 S341.5,1343.8 341.5,1355.5 S341.5,1401.0 341.5,1420.5 S341.84,1522.74 341.5,1546.0 S338.83,1609.85 338.5,1623.5 S338.5,1655.35 338.5,1669.0 S338.64,1713.8 338.5,1733.0 S336.68,1787.95 337.5,1806.5 S329.54,1857.0 344.5,1868.0 S526.53,1941.98 547.0,1960.5 S548.26,2039.75 548.5,2052.5 S548.72,2082.27 549.5,2095.0 S542.34,2149.78 555.5,2167.0 S628.57,2252.07 672.5,2256.0 S1013.2,2209.98 1047.5,2211.0 S1121.53,2252.72 1145.5,2270.0 S1190.0,2333.38 1219.5,2335.0 S1299.8,2288.57 1318.5,2279.5 S1364.17,2263.14 1383.5,2255.5 S1464.25,2223.08 1480.5,2215.5 S1519.7,2194.12 1532.5,2186.0 S1561.19,2165.34 1573.5,2156.5 S1638.7,2109.91 1656.5,2097.0 S1698.72,2065.83 1715.5,2053.5 S1755.73,2026.09 1771.5,2012.5 S1804.5,1962.51 1827.5,1957.0 S1925.31,1971.44 1938.5,1972.5 S1969.94,1973.65 1982.5,1969.5 S2021.7,1950.56 2035.5,1940.5 S2064.2,1912.85 2076.5,1901.0" id="line-188" /></g><g id="lines-B" stroke="#f78222"><path d="M341.5 934.5 C341.5,953.1 341.37,982.85 341.5,996.5 S342.5,1028.35 342.5,1042.0 S341.64,1076.9 341.5,1089.5 S341.5,1118.9 341.5,1131.5 S341.5,1181.5 341.5,1199.5 S341.5,1242.4 341.5,1259.5 S341.5,1304.8 341.5,1316.5 S341.5,1343.8 341.5,1355.5 S341.5,1401.0 341.5,1420.5 S326.42,1518.16 341.5,1546.0 S406.51,1581.27 435.5,1594.0 S534.77,1626.17 546.5,1636.0 S546.65,1672.3 546.5,1687.0 S545.47,1721.3 545.5,1736.0 S527.93,1921.11 547.0,1960.5 S650.3,1999.53 681.5,2017.0 S743.58,2075.04 776.5,2089.0 S1229.0,2249.13 1254.5,2260.0 S1299.15,2307.87 1323.0,2322.0 S1387.06,2339.07 1411.5,2353.0 S1518.24,2424.33 1534.5,2442.5 S1554.21,2503.07 1560.5,2519.5 S1580.78,2564.96 1584.5,2573.0 S1592.52,2592.18 1597.5,2599.5 S1610.97,2615.42 1617.5,2621.5 S1641.13,2639.35 1648.5,2647.0 S1662.44,2667.57 1669.5,2675.5 S1704.43,2710.86 1717.5,2724.5 S1747.11,2757.18 1760.5,2770.5 S1801.36,2806.97 1816.5,2823.0 S1855.44,2870.2 1863.5,2879.5 S1883.87,2902.22 1891.5,2909.5 S1913.09,2922.95 1918.5,2932.0 S1926.2,2960.7 1929.5,2973.0" id="line-55" /></g><g id="lines-E" stroke="#006ab8"><path d="M2377.5 1412.0 C2364.0,1425.2 2350.94,1451.94 2332.5,1456.0 S2242.5,1450.63 2225.5,1445.5 S2195.75,1413.72 2178.5,1409.5 S2115.5,1411.29 2088.5,1412.0 S2017.81,1414.5 1987.5,1414.5 S1888.11,1412.04 1845.5,1412.0 S1508.26,1395.34 1394.0,1414.0 S1051.14,1536.5 1031.0,1545.0 S996.14,1587.9 974.5,1591.0 S724.4,1591.87 702.5,1592.0 S651.4,1592.84 629.5,1593.0 S465.75,1590.83 435.5,1594.0 S349.3,1615.15 338.5,1623.5 S338.5,1655.35 338.5,1669.0 S338.64,1713.8 338.5,1733.0 S336.68,1787.95 337.5,1806.5 S329.54,1857.0 344.5,1868.0 S526.53,1941.98 547.0,1960.5 S548.26,2039.75 548.5,2052.5 S548.8,2082.27 549.5,2095.0 S555.8,2192.65 558.5,2234.5" id="line-171" /></g><g id="lines-D" stroke="#f78222"><path d="M785.5 308.0 C764.2,326.0 724.25,351.79 714.5,368.0 S712.05,414.81 711.5,431.0 S710.79,469.55 710.5,485.0 S709.35,521.94 709.5,536.5 S711.35,571.05 711.5,585.0 S710.5,617.55 710.5,631.5 S711.93,673.56 711.5,689.5 S711.46,727.06 707.5,742.5 S701.25,811.15 678.0,820.0 S407.59,857.64 384.5,865.5 S347.15,910.77 341.5,934.5 S342.5,1009.75 342.5,1042.0 S336.24,1514.78 341.5,1546.0 S406.51,1581.27 435.5,1594.0 S534.77,1626.17 546.5,1636.0 S546.65,1672.3 546.5,1687.0 S545.47,1721.3 545.5,1736.0 S527.93,1921.11 547.0,1960.5 S650.3,1999.53 681.5,2017.0 S745.17,2071.75 776.5,2089.0 S1220.44,2272.5 1285.5,2349.5 S1272.62,2654.71 1280.5,2685.5 S1370.53,2716.47 1380.5,2720.5 S1403.77,2731.03 1411.5,2738.5 S1434.56,2769.96 1440.5,2778.5 S1454.13,2798.59 1459.5,2807.5 S1488.55,2857.49 1496.5,2871.5 S1514.9,2905.88 1522.5,2918.5 S1542.87,2950.95 1549.5,2959.5 S1566.82,2980.24 1574.5,2985.5 S1594.35,2994.84 1603.5,2996.5 S1629.43,2996.68 1640.5,2997.5 S1697.55,2999.33 1711.5,3004.5 S1737.61,3027.36 1748.5,3037.5 S1783.5,3071.1 1798.5,3085.5" id="line-58" /></g><g id="lines-G" stroke="#7bc343"><path d="M992.5 1608.5 C989.2,1625.0 975.1,1647.94 981.5,1663.5 S1058.89,1784.42 1071.5,1800.5 S1107.91,1831.29 1123.5,1844.5 S1164.73,1879.58 1182.5,1894.5 S1256.68,1956.43 1273.5,1970.5 S1312.63,2003.49 1329.5,2017.5 S1376.01,2050.06 1391.5,2068.5 S1434.66,2123.83 1434.5,2142.5 S1402.2,2174.8 1390.5,2186.5 S1363.2,2213.8 1351.5,2225.5 S1322.54,2256.85 1308.5,2268.5 S1239.42,2319.48 1219.5,2335.0 S1161.52,2378.03 1154.5,2388.5 S1148.77,2419.84 1155.5,2430.5 S1185.96,2459.09 1202.5,2464.5 S1244.5,2465.0 1262.5,2465.5 S1367.89,2466.49 1383.5,2469.5 S1417.98,2485.58 1428.5,2497.5 S1487.83,2582.23 1496.5,2597.5 S1510.5,2636.0 1516.5,2652.5" id="line-243" /></g><g id="lines-F" stroke="#f78222"><path d="M2370.5 1238.5 C2358.2,1252.0 2339.17,1272.77 2329.5,1283.5 S2307.21,1308.8 2297.5,1319.5 S2273.54,1349.64 2260.5,1359.5 S2204.33,1401.61 2178.5,1409.5 S2115.5,1411.29 2088.5,1412.0 S2017.81,1414.5 1987.5,1414.5 S1888.11,1412.04 1845.5,1412.0 S1520.52,1402.56 1394.0,1414.0 S1016.72,1485.03 977.5,1490.5 S885.1,1491.03 845.5,1490.5 S720.35,1476.42 676.5,1486.5 S560.56,1542.18 545.5,1559.5 S546.38,1620.7 546.5,1636.0 S546.65,1672.3 546.5,1687.0 S545.5,1721.3 545.5,1736.0 S546.5,1786.6 546.5,1805.5 S545.44,1849.6 545.5,1868.5 S528.36,1940.14 547.0,1960.5 S651.99,2010.11 681.5,2017.0 S760.94,2008.68 782.5,2015.5 S830.69,2057.64 838.0,2066.5 S842.51,2098.17 853.5,2101.5 S1063.92,2125.55 1098.5,2145.5 S1137.49,2235.26 1145.5,2270.0 S1153.72,2375.92 1154.5,2388.5 S1148.77,2419.84 1155.5,2430.5 S1185.96,2459.09 1202.5,2464.5 S1244.5,2465.0 1262.5,2465.5 S1367.89,2466.49 1383.5,2469.5 S1417.98,2485.58 1428.5,2497.5 S1487.83,2582.23 1496.5,2597.5 S1507.69,2637.31 1516.5,2652.5 S1555.46,2702.38 1561.5,2709.5 S1576.9,2724.9 1583.5,2731.5 S1601.13,2748.87 1608.5,2756.5 S1630.06,2779.74 1639.5,2789.5 S1691.2,2841.99 1696.5,2847.5 S1708.29,2860.9 1713.5,2866.5 S1730.25,2884.05 1737.5,2891.5 S1777.08,2931.82 1788.5,2943.5 S1819.76,2975.08 1826.5,2982.5 S1846.08,2998.57 1847.5,3008.5 S1845.05,3047.64 1837.5,3059.5 S1810.2,3077.7 1798.5,3085.5" id="line-58" /></g><g id="lines-J" stroke="#af740c"><path d="M2377.5 1412.0 C2364.0,1425.2 2348.38,1445.78 2332.5,1456.0 S2181.61,1538.25 2168.5,1546.5 S2142.59,1571.69 2131.5,1582.5 S2102.12,1611.22 2089.5,1623.5 S2050.66,1661.21 2040.5,1671.0 S2015.53,1694.83 2006.5,1703.5 S1983.24,1721.95 1976.5,1732.5 S1960.35,1762.88 1960.5,1775.5 S1975.73,1802.79 1977.5,1814.0 S1977.05,1841.1 1972.5,1851.5 S1955.65,1873.76 1947.5,1882.5 S1927.09,1902.79 1917.5,1910.5 S1886.4,1935.34 1873.5,1942.0 S1841.87,1954.95 1827.5,1957.0 S1758.51,1959.77 1743.5,1960.5 S1708.5,1962.61 1693.5,1963.5 S1657.8,1965.54 1642.5,1966.5 S1588.64,1970.72 1565.5,1971.5 S1504.59,1971.25 1478.5,1972.0 S1369.82,1976.85 1357.5,1977.5 S1328.8,1979.56 1316.5,1980.5 S1271.7,1984.03 1252.5,1985.5 S1201.05,1986.79 1179.5,1991.0 S862.96,2061.72 838.0,2066.5 S770.89,2067.33 753.5,2072.5 S711.61,2090.28 703.5,2106.5 S708.22,2150.09 705.5,2168.5 S687.05,2223.95 682.5,2248.5 S675.5,2317.1 672.5,2346.5" id="line-107" /></g><g id="lines-M" stroke="#f78222"><path d="M1845.5 1412.0 C1822.1,1411.55 1790.88,1409.54 1767.5,1410.5 S1710.81,1416.25 1686.5,1418.5 S1616.37,1425.04 1594.5,1426.5 S1543.38,1430.81 1521.5,1429.5 S1459.58,1419.33 1444.5,1417.5 S1408.79,1417.44 1394.0,1414.0 S1348.72,1395.69 1328.5,1390.5 S1279.51,1381.56 1259.5,1379.5 S1207.48,1375.6 1192.5,1376.5 S1155.08,1376.96 1143.5,1386.5 S1106.31,1438.23 1090.5,1460.5 S1045.52,1528.66 1031.0,1545.0 S996.14,1587.9 974.5,1591.0 S724.4,1591.87 702.5,1592.0 S650.58,1587.05 629.5,1593.0 S556.63,1624.53 546.5,1636.0 S546.65,1672.3 546.5,1687.0 S545.5,1721.3 545.5,1736.0 S546.5,1786.6 546.5,1805.5 S545.44,1849.6 545.5,1868.5 S528.36,1940.14 547.0,1960.5 S640.38,2002.02 681.5,2017.0 S788.82,2069.07 838.0,2066.5 S1157.95,1995.21 1179.5,1991.0 S1233.3,1986.97 1252.5,1985.5 S1304.2,1981.44 1316.5,1980.5 S1345.18,1978.15 1357.5,1977.5 S1450.91,1980.59 1478.5,1972.0 S1544.84,1925.04 1556.5,1915.5 S1582.99,1889.85 1591.5,1879.5 S1610.66,1854.55 1616.5,1842.5 S1635.94,1792.21 1639.5,1780.5 S1646.3,1748.53 1647.5,1740.5 S1649.3,1721.62 1649.5,1713.5 S1649.5,1675.7 1649.5,1659.5" id="line-108" /></g><g id="lines-L" stroke="#92959a"><path d="M344.5 1868.0 C404.8,1868.15 509.95,1868.5 545.5,1868.5 S637.45,1868.0 664.0,1868.0 S739.0,1868.45 752.5,1868.5 S784.0,1868.54 797.5,1868.5 S1031.76,1867.04 1067.5,1867.5 S1167.07,1873.92 1186.5,1873.5 S1236.33,1864.14 1250.5,1863.5 S1283.7,1865.26 1297.5,1868.5 S1335.53,1884.04 1348.5,1886.5 S1380.01,1890.76 1392.5,1886.5 S1464.81,1846.66 1480.5,1841.5 S1518.99,1839.38 1535.5,1839.5 S1595.72,1840.98 1616.5,1842.5 S1666.6,1842.97 1685.5,1850.5 S1726.24,1880.84 1739.5,1891.5 S1769.68,1918.96 1782.5,1928.5 S1814.82,1947.28 1827.5,1957.0 S1859.08,1985.26 1872.5,1997.5 S1932.63,2052.67 1946.5,2065.5 S1982.94,2098.82 1992.5,2108.5 S2014.68,2131.37 2022.5,2142.5 S2046.28,2175.96 2051.5,2192.5 S2060.6,2250.6 2064.5,2275.5" id="line-138" /></g><g id="lines-N" stroke="#fed41d"><path d="M1051.5 1190.5 C1051.8,1210.0 1052.36,1238.4 1052.5,1255.5 S1052.64,1295.4 1052.5,1312.5 S1052.08,1357.09 1051.5,1374.5 S1050.11,1418.53 1048.5,1432.5 S1045.88,1465.97 1039.5,1478.5 S1021.05,1512.49 1006.5,1515.0 S725.67,1535.29 703.5,1536.5 S651.63,1533.72 629.5,1535.5 S467.83,1547.02 448.5,1557.0 S446.67,1615.52 447.5,1629.5 S446.02,1665.19 455.5,1675.5 S521.6,1713.93 545.5,1736.0 S648.9,1816.97 664.0,1868.0 S598.19,2058.15 653.5,2101.0 S1211.76,2280.76 1285.5,2349.5 S1281.48,2642.87 1280.5,2685.5 S1268.49,2808.57 1274.5,2827.5 S1316.67,2851.37 1334.5,2855.5 S1377.2,2855.5 1395.5,2855.5 S1438.9,2855.5 1457.5,2855.5 S1572.88,2855.38 1582.5,2855.5 S1605.26,2854.84 1614.5,2857.5 S1644.43,2868.68 1655.5,2876.5 S1679.15,2900.45 1689.5,2910.5 S1752.09,2970.31 1758.5,2976.5 S1776.43,2989.14 1779.5,2997.5 S1792.8,3059.1 1798.5,3085.5" id="line-58" /></g><g id="lines-Q" stroke="#fed41d"><path d="M740.5 1251.5 C740.5,1269.5 740.5,1293.5 740.5,1311.5 S749.97,1394.6 740.5,1420.5 S701.49,1474.82 676.5,1486.5 S475.56,1533.85 448.5,1557.0 S440.0,1646.9 455.5,1675.5 S521.6,1713.93 545.5,1736.0 S648.9,1816.97 664.0,1868.0 S595.2,2062.3 653.5,2101.0 S1228.18,2251.31 1254.5,2260.0 S1299.15,2307.87 1323.0,2322.0 S1387.06,2339.07 1411.5,2353.0 S1518.24,2424.33 1534.5,2442.5 S1554.21,2503.07 1560.5,2519.5 S1580.78,2564.96 1584.5,2573.0 S1592.52,2592.18 1597.5,2599.5 S1610.97,2615.42 1617.5,2621.5 S1641.13,2639.35 1648.5,2647.0 S1662.44,2667.57 1669.5,2675.5 S1704.43,2710.86 1717.5,2724.5 S1747.11,2757.18 1760.5,2770.5 S1801.36,2806.97 1816.5,2823.0 S1855.44,2870.2 1863.5,2879.5 S1883.87,2902.22 1891.5,2909.5 S1913.09,2922.95 1918.5,2932.0 S1931.25,2960.39 1929.5,2973.0 S1917.19,3002.39 1907.5,3011.5 S1849.13,3051.6 1837.5,3059.5 S1810.2,3077.7 1798.5,3085.5" id="line-58" /></g><g id="lines-S" stroke="#6d6e72"><path d="M455.5 1675.5 C522.4,1675.2 611.6,1674.8 678.5,1674.5" id="line-469" /><path d="M1480.5 2215.5 C1488.9,2248.2 1504.0,2306.27 1508.5,2324.5 S1518.3,2367.2 1522.5,2385.5" id="line-142" /></g><g id="lines-R" stroke="#fed41d"><path d="M1845.5 1412.0 C1822.1,1411.55 1790.88,1409.54 1767.5,1410.5 S1710.81,1416.25 1686.5,1418.5 S1616.37,1425.04 1594.5,1426.5 S1543.38,1430.81 1521.5,1429.5 S1459.58,1419.33 1444.5,1417.5 S1408.79,1417.44 1394.0,1414.0 S1348.72,1395.69 1328.5,1390.5 S1279.51,1381.56 1259.5,1379.5 S1207.48,1375.6 1192.5,1376.5 S1155.08,1376.96 1143.5,1386.5 S1106.31,1438.23 1090.5,1460.5 S1061.42,1539.03 1031.0,1545.0 S725.7,1537.03 703.5,1536.5 S651.63,1533.72 629.5,1535.5 S467.83,1547.02 448.5,1557.0 S446.67,1615.52 447.5,1629.5 S446.02,1665.19 455.5,1675.5 S531.71,1726.12 545.5,1736.0 S577.44,1761.11 589.5,1771.5 S618.77,1794.9 628.5,1807.5 S660.28,1857.7 664.0,1868.0 S663.67,1893.55 663.5,1904.5 S662.54,2013.13 661.5,2033.5 S657.74,2081.05 653.5,2101.0 S639.39,2156.63 630.5,2179.5 S589.48,2264.24 584.5,2278.5 S571.0,2315.38 578.5,2328.5 S625.61,2414.31 660.5,2411.5 S1102.0,2288.56 1112.5,2285.5 S1134.73,2271.93 1145.5,2270.0 S1229.79,2245.97 1254.5,2260.0 S1282.37,2331.41 1285.5,2349.5 S1281.13,2397.31 1280.5,2410.5 S1280.6,2441.3 1280.5,2454.5 S1279.88,2521.89 1279.5,2540.5 S1277.37,2583.89 1277.5,2602.5 S1280.61,2671.35 1280.5,2685.5 S1277.36,2718.37 1276.5,2732.5 S1274.77,2771.6 1274.5,2784.5 S1274.5,2814.6 1274.5,2827.5 S1273.49,2879.23 1274.5,2893.5 S1279.31,2926.56 1282.5,2940.5 S1292.93,2977.99 1296.5,2989.5 S1305.6,3016.1 1309.5,3027.5" id="line-39" /></g><g id="lines-W" stroke="#fed41d"><path d="M1051.5 1190.5 C1051.8,1210.0 1052.36,1238.4 1052.5,1255.5 S1052.64,1295.4 1052.5,1312.5 S1052.08,1357.09 1051.5,1374.5 S1050.11,1418.53 1048.5,1432.5 S1045.88,1465.97 1039.5,1478.5 S1021.05,1512.49 1006.5,1515.0 S725.67,1535.29 703.5,1536.5 S651.63,1533.72 629.5,1535.5 S467.83,1547.02 448.5,1557.0 S446.67,1615.52 447.5,1629.5 S446.02,1665.19 455.5,1675.5 S531.71,1726.12 545.5,1736.0 S577.44,1761.11 589.5,1771.5 S618.77,1794.9 628.5,1807.5 S660.28,1857.7 664.0,1868.0 S663.67,1893.55 663.5,1904.5 S662.54,2013.13 661.5,2033.5 S657.74,2081.05 653.5,2101.0 S639.39,2156.63 630.5,2179.5 S589.48,2264.24 584.5,2278.5 S571.0,2315.38 578.5,2328.5 S635.9,2386.6 660.5,2411.5" id="line-23" /></g><g id="lines-Z" stroke="#af740c"><path d="M2377.5 1412.0 C2364.0,1425.2 2348.38,1445.78 2332.5,1456.0 S2195.75,1527.72 2168.5,1546.5 S2104.18,1609.23 2089.5,1623.5 S2055.24,1656.79 2040.5,1671.0 S1986.36,1710.12 1976.5,1732.5 S1977.88,1802.66 1977.5,1814.0 S1978.49,1841.86 1972.5,1851.5 S1937.07,1896.26 1917.5,1910.5 S1851.74,1950.03 1827.5,1957.0 S1768.69,1959.21 1743.5,1960.5 S1672.82,1965.18 1642.5,1966.5 S1527.66,1969.4 1478.5,1972.0 S1268.42,1977.88 1179.5,1991.0 S862.96,2061.72 838.0,2066.5 S770.89,2067.33 753.5,2072.5 S711.61,2090.28 703.5,2106.5 S708.22,2150.09 705.5,2168.5 S687.05,2223.95 682.5,2248.5 S675.5,2317.1 672.5,2346.5" id="line-107" /></g></g><g fill="#ffffff" id="symbols" stroke="#000000" stroke-width="2"><g id="symbols-SIR"><circle cx="559.5" cy="2606.5" id="symbol-501" r="3.5" /><circle cx="564.5" cy="2636.5" id="symbol-502" r="3.5" /><circle cx="580.5" cy="2660.5" id="symbol-503" r="3.5" /><circle cx="594.5" cy="2686.5" id="symbol-504" r="3.5" /><circle cx="549.5" cy="2774.5" id="symbol-505" r="3.5" /><circle cx="541.5" cy="2804.5" id="symbol-506" r="3.5" /><circle cx="525.5" cy="2836.5" id="symbol-507" r="3.5" /><circle cx="509.5" cy="2862.5" id="symbol-508" r="3.5" /><circle cx="497.5" cy="2877.5" id="symbol-509" r="3.5" /><circle cx="473.5" cy="2905.5" id="symbol-510" r="3.5" /><circle cx="449.5" cy="2937.5" id="symbol-511" r="3.5" /><circle cx="425.5" cy="2978.5" id="symbol-512" r="3.5" /><circle cx="396.5" cy="3010.5" id="symbol-513" r="3.5" /><circle cx="328.5" cy="3050.5" id="symbol-514" r="3.5" /><circle cx="297.5" cy="3073.5" id="symbol-515" r="3.5" /><circle cx="261.5" cy="3108.5" id="symbol-516" r="3.5" /><circle cx="229.5" cy="3139.5" id="symbol-517" r="3.5" /><circle cx="187.5" cy="3169.5" id="symbol-518" r="3.5" /><circle cx="157.5" cy="3183.5" id="symbol-519" r="3.5" /><circle cx="107.5" cy="3203.5" id="symbol-522" r="3.5" /><circle cx="79.5" cy="3239.5" id="symbol-523" r="3.5" /></g><g id="symbols-1"><circle cx="430.5" cy="243.5" id="symbol-293" r="5.5" /><circle cx="447.5" cy="321.5" id="symbol-294" r="5.5" /><circle cx="443.5" cy="363.5" id="symbol-295" r="5.5" /><circle cx="430.5" cy="401.5" id="symbol-296" r="5.5" /><circle cx="317.5" cy="490.5" id="symbol-297" r="5.5" /><circle cx="297.5" cy="532.5" id="symbol-298" r="5.5" /><circle cx="276.5" cy="581.5" id="symbol-299" r="5.5" /><circle cx="267.5" cy="616.5" id="symbol-300" r="5.5" /><circle cx="258.5" cy="667.5" id="symbol-301" r="5.5" /><circle cx="257.5" cy="780.0" id="symbol-302" r="5.5" /><circle cx="256.5" cy="855.5" id="symbol-303" r="5.5" /><circle cx="255.5" cy="935.5" id="symbol-304" r="5.5" /><circle cx="255.5" cy="986.5" id="symbol-305" r="5.5" /><circle cx="254.5" cy="1035.5" id="symbol-306" r="5.5" /><circle cx="255.5" cy="1087.5" id="symbol-307" r="5.5" /><circle cx="261.5" cy="1131.5" id="symbol-308" r="5.5" /><circle cx="269.5" cy="1200.5" id="symbol-309" r="5.5" /><circle cx="269.5" cy="1260.0" id="symbol-310" r="5.5" /><circle cx="268.5" cy="1316.5" id="symbol-311" r="5.5" /><circle cx="269.5" cy="1366.5" id="symbol-312" r="5.5" /><circle cx="278.5" cy="1419.0" id="symbol-313" r="5.5" /><circle cx="298.5" cy="1471.5" id="symbol-314" r="5.5" /><circle cx="352.5" cy="1546.5" id="symbol-315" r="5.5" /><circle cx="417.5" cy="1624.5" id="symbol-316" r="5.5" /><circle cx="455.5" cy="1675.5" id="symbol-317" r="7.5" /><circle cx="449.5" cy="1733.0" id="symbol-318" r="5.5" /><circle cx="449.5" cy="1771.5" id="symbol-319" r="5.5" /><circle cx="448.5" cy="1806.5" id="symbol-320" r="5.5" /><circle cx="449.5" cy="1839.5" id="symbol-321" r="5.5" /><circle cx="449.5" cy="1877.0" id="symbol-322" r="5.5" /><circle cx="455.5" cy="1954.5" id="symbol-323" r="5.5" /><circle cx="487.5" cy="2028.5" id="symbol-324" r="5.5" /><circle cx="510.5" cy="2091.5" id="symbol-325" r="5.5" /><circle cx="517.5" cy="2126.5" id="symbol-326" r="5.5" /><circle cx="522.5" cy="2167.0" id="symbol-327" r="5.5" /><circle cx="523.0" cy="2278.0" id="symbol-328" r="5.0" /><circle cx="524.5" cy="2328.5" id="symbol-329" r="5.5" /><circle cx="649.5" cy="2420.5" id="symbol-330" r="5.5" /></g><g id="symbols-3"><circle cx="469.5" cy="907.5" id="symbol-436" r="5.5" /><circle cx="532.5" cy="936.5" id="symbol-437" r="5.5" /><circle cx="534.5" cy="995.5" id="symbol-438" r="5.5" /><circle cx="533.5" cy="1045.5" id="symbol-439" r="5.5" /><circle cx="533.5" cy="1089.5" id="symbol-440" r="5.5" /><circle cx="533.5" cy="1132.5" id="symbol-441" r="5.5" /><circle cx="596.5" cy="2206.0" id="symbol-331" r="5.5" /><circle cx="696.5" cy="2269.5" id="symbol-332" r="5.5" /><circle cx="695.5" cy="2311.5" id="symbol-333" r="5.5" /><circle cx="1032.5" cy="2277.5" id="symbol-334" r="5.5" /><circle cx="1127.5" cy="2296.0" id="symbol-335" r="5.5" /><circle cx="1196.5" cy="2291.5" id="symbol-336" r="5.5" /><circle cx="1253.5" cy="2298.0" id="symbol-337" r="5.5" /><rect height="26" id="symbol-338" rx="9.0" ry="9.0" width="18" x="1314" y="2309" /><circle cx="1372.5" cy="2358.5" id="symbol-339" r="5.5" /><circle cx="1417.5" cy="2377.5" id="symbol-340" r="5.5" /><circle cx="1489.5" cy="2377.5" id="symbol-341" r="5.5" /><circle cx="1537.5" cy="2355.0" id="symbol-342" r="5.5" /><circle cx="1603.5" cy="2322.5" id="symbol-343" r="5.5" /><circle cx="1678.5" cy="2279.5" id="symbol-344" r="5.5" /><circle cx="1746.5" cy="2233.0" id="symbol-345" r="5.5" /><circle cx="1811.5" cy="2207.5" id="symbol-346" r="5.5" /><circle cx="1879.5" cy="2178.5" id="symbol-347" r="5.5" /><circle cx="1924.5" cy="2137.5" id="symbol-348" r="5.5" /><circle cx="1955.5" cy="2111.5" id="symbol-349" r="5.5" /><circle cx="2002.5" cy="2067.5" id="symbol-350" r="5.5" /><circle cx="2030.5" cy="2042.5" id="symbol-351" r="5.5" /><circle cx="2060.5" cy="2013.5" id="symbol-352" r="5.5" /></g><g id="symbols-2"><circle cx="857.5" cy="77.5" id="symbol-416" r="5.5" /><circle cx="857.5" cy="127.5" id="symbol-417" r="5.5" /><circle cx="856.5" cy="160.5" id="symbol-418" r="5.5" /><circle cx="857.5" cy="202.5" id="symbol-419" r="5.5" /><circle cx="864.5" cy="245.5" id="symbol-420" r="5.5" /><circle cx="884.5" cy="285.5" id="symbol-421" r="5.5" /><circle cx="917.5" cy="347.5" id="symbol-422" r="5.5" /><circle cx="941.5" cy="386.5" id="symbol-423" r="5.5" /><circle cx="971.5" cy="451.5" id="symbol-424" r="5.5" /><circle cx="978.5" cy="497.5" id="symbol-425" r="5.5" /><circle cx="963.0" cy="562.5" id="symbol-426" r="6.0" /><circle cx="923.5" cy="592.5" id="symbol-427" r="5.5" /><circle cx="920.5" cy="638.5" id="symbol-428" r="5.5" /><circle cx="926.5" cy="704.5" id="symbol-429" r="5.5" /><circle cx="928.5" cy="761.5" id="symbol-430" r="5.5" /><circle cx="919.5" cy="804.5" id="symbol-431" r="5.5" /><circle cx="898.5" cy="837.5" id="symbol-432" r="5.5" /><circle cx="856.5" cy="871.5" id="symbol-433" r="5.5" /><circle cx="761.0" cy="896.5" id="symbol-434" r="6.0" /><circle cx="724.0" cy="901.5" id="symbol-435" r="6.0" /><circle cx="1591.5" cy="2374.5" id="symbol-353" r="5.5" /><circle cx="1616.5" cy="2400.5" id="symbol-354" r="5.5" /><circle cx="1650.5" cy="2435.5" id="symbol-355" r="5.5" /><circle cx="1686.5" cy="2471.5" id="symbol-356" r="5.5" /><circle cx="1706.5" cy="2493.5" id="symbol-357" r="5.5" /><circle cx="1729.5" cy="2517.5" id="symbol-358" r="5.5" /><circle cx="1781.5" cy="2572.5" id="symbol-359" r="5.5" /></g><g id="symbols-5"><circle cx="1029.5" cy="125.5" id="symbol-442" r="5.5" /><circle cx="1026.5" cy="176.5" id="symbol-443" r="5.5" /><circle cx="1022.5" cy="282.5" id="symbol-444" r="5.5" /><circle cx="1020.5" cy="396.5" id="symbol-445" r="5.5" /><circle cx="1016.5" cy="451.5" id="symbol-446" r="5.5" /><circle cx="696.5" cy="955.5" id="symbol-391" r="5.5" /><circle cx="686.5" cy="1046.0" id="symbol-392" r="5.5" /><circle cx="685.5" cy="1312.0" id="symbol-397" r="5.5" /><circle cx="685.5" cy="1545.0" id="symbol-400" r="5.5" /><circle cx="678.5" cy="1674.5" id="symbol-402" r="7.5" /><rect height="10" id="symbol-406" rx="5.0" ry="5.0" width="24" x="652" y="1863" /><circle cx="689.5" cy="2180.0" id="symbol-411" r="5.5" /><circle cx="655.5" cy="2263.0" id="symbol-412" r="5.5" /><circle cx="637.5" cy="2312.0" id="symbol-413" r="5.5" /><circle cx="626.5" cy="2398.0" id="symbol-414" r="5.5" /><circle cx="1127.5" cy="2296.0" id="symbol-415" r="5.5" /></g><g id="symbols-4"><circle cx="695.5" cy="251.5" id="symbol-378" r="5.5" /><circle cx="692.5" cy="312.5" id="symbol-379" r="5.5" /><circle cx="687.5" cy="373.5" id="symbol-380" r="5.5" /><circle cx="675.5" cy="440.5" id="symbol-381" r="5.5" /><circle cx="668.5" cy="498.5" id="symbol-382" r="5.5" /><circle cx="667.5" cy="531.5" id="symbol-383" r="5.5" /><circle cx="667.5" cy="567.5" id="symbol-384" r="5.5" /><circle cx="668.5" cy="613.5" id="symbol-385" r="5.5" /><circle cx="668.5" cy="652.5" id="symbol-386" r="5.5" /><circle cx="668.5" cy="691.5" id="symbol-387" r="5.5" /><circle cx="667.5" cy="743.5" id="symbol-388" r="5.5" /><rect height="18" id="symbol-389" rx="7.0" ry="7.0" width="14" x="671" y="811" /><circle cx="691.5" cy="876.0" id="symbol-390" r="5.5" /></g><g id="symbols-7"><circle cx="1656.5" cy="1072.0" id="symbol-447" r="5.5" /><circle cx="1603.5" cy="1153.0" id="symbol-448" r="5.5" /><circle cx="1571.5" cy="1200.5" id="symbol-449" r="5.5" /><circle cx="1530.5" cy="1255.5" id="symbol-450" r="5.5" /><circle cx="1499.5" cy="1285.0" id="symbol-451" r="5.5" /><circle cx="1469.5" cy="1311.5" id="symbol-452" r="5.5" /><circle cx="1419.5" cy="1354.5" id="symbol-453" r="5.5" /><circle cx="1389.5" cy="1378.5" id="symbol-454" r="5.5" /><circle cx="1330.5" cy="1427.5" id="symbol-455" r="5.5" /><circle cx="1302.5" cy="1451.0" id="symbol-456" r="5.5" /><circle cx="1266.5" cy="1477.5" id="symbol-457" r="5.5" /><circle cx="1233.5" cy="1496.5" id="symbol-458" r="5.5" /><circle cx="1175.5" cy="1520.5" id="symbol-459" r="5.5" /><circle cx="1108.5" cy="1526.5" id="symbol-460" r="5.5" /><circle cx="1006.5" cy="1515.0" id="symbol-461" r="5.5" /><circle cx="992.5" cy="1608.5" id="symbol-462" r="5.5" /><circle cx="997.5" cy="1682.5" id="symbol-463" r="5.5" /><circle cx="934.5" cy="1680.5" id="symbol-464" r="5.5" /><circle cx="678.5" cy="1674.5" id="symbol-465" r="7.5" /><circle cx="629.5" cy="1680.5" id="symbol-466" r="5.5" /><circle cx="455.5" cy="1675.5" id="symbol-467" r="7.5" /><circle cx="267.5" cy="1733.5" id="symbol-471" r="5.5" /></g><g id="symbols-6"><circle cx="1262.5" cy="334.5" id="symbol-360" r="5.5" /><circle cx="1258.5" cy="380.5" id="symbol-361" r="5.5" /><circle cx="1245.5" cy="429.5" id="symbol-362" r="5.5" /><circle cx="1216.5" cy="488.5" id="symbol-363" r="5.5" /><circle cx="1182.5" cy="534.5" id="symbol-364" r="5.5" /><circle cx="1151.5" cy="566.5" id="symbol-365" r="5.5" /><circle cx="1116.5" cy="599.0" id="symbol-366" r="5.5" /><circle cx="1077.5" cy="632.5" id="symbol-367" r="5.5" /><circle cx="1034.5" cy="671.5" id="symbol-368" r="5.5" /><circle cx="1002.5" cy="707.5" id="symbol-369" r="5.5" /><circle cx="988.5" cy="740.5" id="symbol-370" r="5.5" /><circle cx="973.5" cy="804.0" id="symbol-371" r="5.5" /><circle cx="965.5" cy="845.5" id="symbol-372" r="5.5" /><circle cx="955.5" cy="889.5" id="symbol-373" r="5.5" /><circle cx="941.5" cy="928.5" id="symbol-374" r="5.5" /><circle cx="903.5" cy="959.5" id="symbol-375" r="5.5" /><circle cx="835.5" cy="970.5" id="symbol-376" r="5.5" /><circle cx="745.0" cy="971.5" id="symbol-377" r="6.0" /><circle cx="685.5" cy="1089.5" id="symbol-393" r="5.5" /><circle cx="685.5" cy="1134.5" id="symbol-394" r="5.5" /><circle cx="685.5" cy="1204.5" id="symbol-395" r="5.5" /><circle cx="684.5" cy="1252.5" id="symbol-396" r="5.5" /><circle cx="685.5" cy="1392.5" id="symbol-398" r="5.5" /><circle cx="685.5" cy="1455.5" id="symbol-399" r="5.5" /><circle cx="684.5" cy="1608.5" id="symbol-401" r="5.5" /><circle cx="664.5" cy="1740.5" id="symbol-403" r="5.5" /><circle cx="663.5" cy="1769.5" id="symbol-404" r="5.5" /><circle cx="664.5" cy="1806.5" id="symbol-405" r="5.5" /><circle cx="676.5" cy="1907.5" id="symbol-407" r="5.5" /><circle cx="687.5" cy="2001.5" id="symbol-408" r="5.5" /><circle cx="691.5" cy="2052.5" id="symbol-409" r="5.5" /><circle cx="693.5" cy="2106.5" id="symbol-410" r="5.5" /></g><g id="symbols-A"><circle cx="2193.5" cy="1736.5" id="symbol-192" r="5.5" /><circle cx="2309.5" cy="1855.5" id="symbol-196" r="5.5" /><circle cx="2307.5" cy="1892.5" id="symbol-197" r="5.5" /><circle cx="2330.5" cy="1966.5" id="symbol-198" r="5.5" /><circle cx="2446.5" cy="2325.5" id="symbol-199" r="5.5" /><circle cx="2560.5" cy="2376.5" id="symbol-204" r="5.5" /><circle cx="2581.5" cy="2345.5" id="symbol-205" r="5.5" /><circle cx="2614.5" cy="2313.5" id="symbol-206" r="5.5" /><circle cx="2637.5" cy="2277.5" id="symbol-207" r="5.5" /><circle cx="2649.5" cy="2238.5" id="symbol-208" r="5.5" /><circle cx="2654.5" cy="2213.5" id="symbol-209" r="5.5" /><circle cx="2500.5" cy="2484.5" id="symbol-200" r="5.5" /><circle cx="2485.5" cy="2530.5" id="symbol-201" r="5.5" /><circle cx="2461.5" cy="2575.5" id="symbol-202" r="5.5" /><circle cx="2436.5" cy="2618.5" id="symbol-203" r="5.5" /><circle cx="267.5" cy="533.5" id="symbol-143" r="5.5" /><circle cx="230.5" cy="580.5" id="symbol-144" r="5.5" /><circle cx="204.5" cy="624.5" id="symbol-145" r="5.5" /><circle cx="197.5" cy="667.5" id="symbol-146" r="5.5" /><circle cx="216.5" cy="725.5" id="symbol-147" r="5.5" /><circle cx="257.5" cy="780.0" id="symbol-148" r="5.5" /><rect height="9" id="symbol-151" rx="4.5" ry="4.5" width="17" x="333" y="930" /><circle cx="342.5" cy="1042.0" id="symbol-153" r="5.5" /><circle cx="341.5" cy="1546.0" id="symbol-161" r="5.5" /><circle cx="338.5" cy="1669.0" id="symbol-163" r="5.5" /><circle cx="338.5" cy="1733.0" id="symbol-164" r="5.5" /><circle cx="344.5" cy="1868.0" id="symbol-166" r="5.5" /><circle cx="547.0" cy="1960.5" id="symbol-167" r="6.0" /><circle cx="549.5" cy="2095.0" id="symbol-169" r="5.5" /><circle cx="555.5" cy="2167.0" id="symbol-170" r="5.5" /><circle cx="672.5" cy="2256.0" id="symbol-172" r="5.5" /><circle cx="1047.5" cy="2211.0" id="symbol-173" r="5.5" /><circle cx="1145.5" cy="2270.0" id="symbol-174" r="5.5" /><circle cx="1219.5" cy="2335.0" id="symbol-175" r="5.5" /><circle cx="1532.5" cy="2186.0" id="symbol-179" r="5.5" /><circle cx="1656.5" cy="2097.0" id="symbol-181" r="5.5" /><rect height="20" id="symbol-184" rx="10.0" ry="10.0" width="23" x="1816" y="1947" /><circle cx="2076.5" cy="1901.0" id="symbol-188" r="5.5" /><circle cx="2110.5" cy="1855.5" id="symbol-189" r="5.5" /><circle cx="2138.5" cy="1801.5" id="symbol-190" r="5.5" /><circle cx="2166.5" cy="1759.5" id="symbol-191" r="5.5" /><circle cx="2253.5" cy="1687.5" id="symbol-193" r="5.5" /><circle cx="2293.5" cy="1652.5" id="symbol-194" r="5.5" /><circle cx="2334.5" cy="1617.5" id="symbol-195" r="5.5" /></g><g id="symbols-C"><circle cx="286.5" cy="812.5" id="symbol-149" r="5.5" /><circle cx="328.5" cy="865.5" id="symbol-150" r="5.5" /><circle cx="341.5" cy="996.5" id="symbol-152" r="5.5" /><circle cx="341.5" cy="1089.5" id="symbol-154" r="5.5" /><circle cx="341.5" cy="1131.5" id="symbol-155" r="5.5" /><circle cx="341.5" cy="1199.5" id="symbol-156" r="5.5" /><circle cx="341.5" cy="1259.5" id="symbol-157" r="5.5" /><circle cx="341.5" cy="1316.5" id="symbol-158" r="5.5" /><circle cx="341.5" cy="1355.5" id="symbol-159" r="5.5" /><circle cx="341.5" cy="1420.5" id="symbol-160" r="5.5" /><circle cx="338.5" cy="1623.5" id="symbol-162" r="5.5" /><circle cx="337.5" cy="1806.5" id="symbol-165" r="5.5" /><circle cx="548.5" cy="2052.5" id="symbol-168" r="5.5" /><circle cx="1318.5" cy="2279.5" id="symbol-176" r="5.5" /><circle cx="1383.5" cy="2255.5" id="symbol-177" r="5.5" /><circle cx="1480.5" cy="2215.5" id="symbol-178" r="5.5" /><circle cx="1573.5" cy="2156.5" id="symbol-180" r="5.5" /><circle cx="1715.5" cy="2053.5" id="symbol-182" r="5.5" /><circle cx="1771.5" cy="2012.5" id="symbol-183" r="5.5" /><circle cx="1938.5" cy="1972.5" id="symbol-185" r="5.5" /><circle cx="1982.5" cy="1969.5" id="symbol-186" r="5.5" /><circle cx="2035.5" cy="1940.5" id="symbol-187" r="5.5" /></g><g id="symbols-B"><circle cx="435.5" cy="1594.0" id="symbol-277" r="5.5" /><circle cx="546.5" cy="1636.0" id="symbol-225" r="5.5" /><circle cx="546.5" cy="1687.0" id="symbol-226" r="5.5" /><circle cx="545.5" cy="1736.0" id="symbol-227" r="5.5" /><circle cx="681.5" cy="2017.0" id="symbol-230" r="5.5" /><circle cx="776.5" cy="2089.0" id="symbol-231" r="5.5" /><circle cx="1254.5" cy="2260.0" id="symbol-26" r="5.5" /><rect height="26" id="symbol-40" rx="9.0" ry="9.0" width="18" x="1314" y="2309" /><circle cx="1411.5" cy="2353.0" id="symbol-41" r="5.5" /><rect height="19" id="symbol-42" rx="8.5" ry="8.5" width="17" x="1526" y="2433" /><circle cx="1560.5" cy="2519.5" id="symbol-43" r="5.5" /><circle cx="1584.5" cy="2573.0" id="symbol-44" r="5.5" /><circle cx="1597.5" cy="2599.5" id="symbol-45" r="5.5" /><circle cx="1617.5" cy="2621.5" id="symbol-46" r="5.5" /><circle cx="1648.5" cy="2647.0" id="symbol-47" r="5.5" /><circle cx="1669.5" cy="2675.5" id="symbol-48" r="5.5" /><circle cx="1717.5" cy="2724.5" id="symbol-49" r="5.5" /><circle cx="1760.5" cy="2770.5" id="symbol-50" r="5.5" /><circle cx="1816.5" cy="2823.0" id="symbol-51" r="5.5" /><circle cx="1863.5" cy="2879.5" id="symbol-52" r="5.5" /><circle cx="1891.5" cy="2909.5" id="symbol-53" r="5.5" /><circle cx="1918.5" cy="2932.0" id="symbol-54" r="5.5" /><circle cx="1929.5" cy="2973.0" id="symbol-55" r="5.5" /></g><g id="symbols-E"><circle cx="2377.5" cy="1412.0" id="symbol-278" r="5.5" /><circle cx="2332.5" cy="1456.0" id="symbol-279" r="5.5" /><circle cx="2225.5" cy="1445.5" id="symbol-280" r="5.5" /><circle cx="2178.5" cy="1409.5" id="symbol-258" r="5.5" /><circle cx="2088.5" cy="1412.0" id="symbol-259" r="5.5" /><circle cx="1987.5" cy="1414.5" id="symbol-260" r="5.5" /><rect height="36" id="symbol-261" rx="7.5" ry="7.5" width="15" x="1838" y="1394" /><rect height="36" id="symbol-267" rx="9.0" ry="9.0" width="18" x="1385" y="1396" /><circle cx="1031.0" cy="1545.0" id="symbol-273" r="11.0" /><circle cx="974.5" cy="1591.0" id="symbol-274" r="5.5" /><circle cx="702.5" cy="1592.0" id="symbol-275" r="5.5" /><circle cx="629.5" cy="1593.0" id="symbol-276" r="5.5" /><circle cx="558.5" cy="2234.5" id="symbol-171" r="5.5" /></g><g id="symbols-D"><circle cx="785.5" cy="308.0" id="symbol-210" r="5.5" /><circle cx="714.5" cy="368.0" id="symbol-211" r="5.5" /><circle cx="711.5" cy="431.0" id="symbol-212" r="5.5" /><circle cx="710.5" cy="485.0" id="symbol-213" r="5.5" /><circle cx="709.5" cy="536.5" id="symbol-214" r="5.5" /><circle cx="711.5" cy="585.0" id="symbol-215" r="5.5" /><circle cx="710.5" cy="631.5" id="symbol-216" r="5.5" /><circle cx="711.5" cy="689.5" id="symbol-217" r="5.5" /><circle cx="707.5" cy="742.5" id="symbol-218" r="5.5" /><rect height="18" id="symbol-219" rx="7.0" ry="7.0" width="14" x="671" y="811" /><circle cx="384.5" cy="865.5" id="symbol-220" r="5.5" /><rect height="9" id="symbol-27" rx="4.5" ry="4.5" width="17" x="1277" y="2345" /><rect height="9" id="symbol-32" rx="4.5" ry="4.5" width="17" x="1272" y="2681" /><circle cx="1380.5" cy="2720.5" id="symbol-59" r="5.5" /><circle cx="1411.5" cy="2738.5" id="symbol-60" r="5.5" /><circle cx="1440.5" cy="2778.5" id="symbol-61" r="5.5" /><circle cx="1459.5" cy="2807.5" id="symbol-62" r="5.5" /><circle cx="1496.5" cy="2871.5" id="symbol-63" r="5.5" /><circle cx="1522.5" cy="2918.5" id="symbol-64" r="5.5" /><circle cx="1549.5" cy="2959.5" id="symbol-65" r="5.5" /><circle cx="1574.5" cy="2985.5" id="symbol-66" r="5.5" /><circle cx="1603.5" cy="2996.5" id="symbol-67" r="5.5" /><circle cx="1640.5" cy="2997.5" id="symbol-68" r="5.5" /><circle cx="1711.5" cy="3004.5" id="symbol-69" r="5.5" /><circle cx="1748.5" cy="3037.5" id="symbol-70" r="5.5" /><circle cx="1798.5" cy="3085.5" id="symbol-58" r="7.5" /></g><g id="symbols-G"><circle cx="992.5" cy="1608.5" id="symbol-281" r="5.5" /><circle cx="981.5" cy="1663.5" id="symbol-282" r="5.5" /><circle cx="1071.5" cy="1800.5" id="symbol-283" r="5.5" /><circle cx="1123.5" cy="1844.5" id="symbol-284" r="5.5" /><circle cx="1182.5" cy="1894.5" id="symbol-285" r="5.5" /><circle cx="1273.5" cy="1970.5" id="symbol-286" r="5.5" /><circle cx="1329.5" cy="2017.5" id="symbol-287" r="5.5" /><circle cx="1391.5" cy="2068.5" id="symbol-288" r="5.5" /><circle cx="1434.5" cy="2142.5" id="symbol-289" r="5.5" /><circle cx="1390.5" cy="2186.5" id="symbol-290" r="5.5" /><circle cx="1351.5" cy="2225.5" id="symbol-291" r="5.5" /><circle cx="1308.5" cy="2268.5" id="symbol-292" r="5.5" /><circle cx="1154.5" cy="2388.5" id="symbol-236" r="5.5" /><circle cx="1155.5" cy="2430.5" id="symbol-237" r="5.5" /><circle cx="1202.5" cy="2464.5" id="symbol-238" r="5.5" /><circle cx="1262.5" cy="2465.5" id="symbol-239" r="5.5" /><circle cx="1383.5" cy="2469.5" id="symbol-240" r="5.5" /><circle cx="1428.5" cy="2497.5" id="symbol-241" r="5.5" /><circle cx="1496.5" cy="2597.5" id="symbol-242" r="5.5" /><circle cx="1516.5" cy="2652.5" id="symbol-243" r="5.5" /></g><g id="symbols-F"><circle cx="2370.5" cy="1238.5" id="symbol-254" r="5.5" /><circle cx="2329.5" cy="1283.5" id="symbol-255" r="5.5" /><circle cx="2297.5" cy="1319.5" id="symbol-256" r="5.5" /><circle cx="2260.5" cy="1359.5" id="symbol-257" r="5.5" /><circle cx="977.5" cy="1490.5" id="symbol-221" r="5.5" /><circle cx="845.5" cy="1490.5" id="symbol-222" r="5.5" /><circle cx="676.5" cy="1486.5" id="symbol-223" r="5.5" /><circle cx="545.5" cy="1559.5" id="symbol-224" r="5.5" /><circle cx="546.5" cy="1805.5" id="symbol-228" r="5.5" /><circle cx="545.5" cy="1868.5" id="symbol-229" r="5.5" /><circle cx="782.5" cy="2015.5" id="symbol-232" r="5.5" /><rect height="19" id="symbol-233" rx="6.0" ry="6.0" width="12" x="832" y="2057" /><circle cx="853.5" cy="2101.5" id="symbol-234" r="5.5" /><circle cx="1098.5" cy="2145.5" id="symbol-235" r="5.5" /><circle cx="1561.5" cy="2709.5" id="symbol-244" r="5.5" /><circle cx="1583.5" cy="2731.5" id="symbol-245" r="5.5" /><circle cx="1608.5" cy="2756.5" id="symbol-246" r="5.5" /><circle cx="1639.5" cy="2789.5" id="symbol-247" r="5.5" /><circle cx="1696.5" cy="2847.5" id="symbol-248" r="5.5" /><circle cx="1713.5" cy="2866.5" id="symbol-249" r="5.5" /><circle cx="1737.5" cy="2891.5" id="symbol-250" r="5.5" /><circle cx="1788.5" cy="2943.5" id="symbol-251" r="5.5" /><circle cx="1826.5" cy="2982.5" id="symbol-252" r="5.5" /><circle cx="1847.5" cy="3008.5" id="symbol-253" r="5.5" /><circle cx="1837.5" cy="3059.5" id="symbol-57" r="5.5" /></g><g id="symbols-J"><circle cx="2168.5" cy="1546.5" id="symbol-80" r="5.5" /><circle cx="2131.5" cy="1582.5" id="symbol-81" r="5.5" /><circle cx="2089.5" cy="1623.5" id="symbol-82" r="5.5" /><circle cx="2040.5" cy="1671.0" id="symbol-83" r="5.5" /><circle cx="2006.5" cy="1703.5" id="symbol-84" r="5.5" /><circle cx="1976.5" cy="1732.5" id="symbol-85" r="5.5" /><circle cx="1960.5" cy="1775.5" id="symbol-86" r="5.5" /><circle cx="1977.5" cy="1814.0" id="symbol-87" r="5.5" /><circle cx="1972.5" cy="1851.5" id="symbol-88" r="5.5" /><circle cx="1947.5" cy="1882.5" id="symbol-89" r="5.5" /><circle cx="1917.5" cy="1910.5" id="symbol-90" r="5.5" /><circle cx="1873.5" cy="1942.0" id="symbol-91" r="5.5" /><rect height="20" id="symbol-92" rx="10.0" ry="10.0" width="23" x="1816" y="1947" /><circle cx="1743.5" cy="1960.5" id="symbol-93" r="5.5" /><circle cx="1693.5" cy="1963.5" id="symbol-94" r="5.5" /><circle cx="1642.5" cy="1966.5" id="symbol-95" r="5.5" /><circle cx="1565.5" cy="1971.5" id="symbol-96" r="5.5" /><circle cx="1478.5" cy="1972.0" id="symbol-97" r="5.5" /><circle cx="1357.5" cy="1977.5" id="symbol-98" r="5.5" /><circle cx="1316.5" cy="1980.5" id="symbol-99" r="5.5" /><circle cx="1252.5" cy="1985.5" id="symbol-100" r="5.5" /><circle cx="1179.5" cy="1991.0" id="symbol-101" r="5.5" /><rect height="19" id="symbol-102" rx="6.0" ry="6.0" width="12" x="832" y="2057" /><circle cx="753.5" cy="2072.5" id="symbol-103" r="5.5" /><circle cx="703.5" cy="2106.5" id="symbol-104" r="5.5" /><circle cx="705.5" cy="2168.5" id="symbol-105" r="5.5" /><circle cx="682.5" cy="2248.5" id="symbol-106" r="5.5" /><circle cx="672.5" cy="2346.5" id="symbol-107" r="5.5" /></g><g id="symbols-M"><circle cx="1767.5" cy="1410.5" id="symbol-262" r="5.5" /><circle cx="1686.5" cy="1418.5" id="symbol-263" r="5.5" /><circle cx="1594.5" cy="1426.5" id="symbol-264" r="5.5" /><circle cx="1521.5" cy="1429.5" id="symbol-265" r="5.5" /><circle cx="1444.5" cy="1417.5" id="symbol-266" r="5.5" /><circle cx="1328.5" cy="1390.5" id="symbol-268" r="5.5" /><circle cx="1259.5" cy="1379.5" id="symbol-269" r="5.5" /><circle cx="1192.5" cy="1376.5" id="symbol-270" r="5.5" /><circle cx="1143.5" cy="1386.5" id="symbol-271" r="5.5" /><circle cx="1090.5" cy="1460.5" id="symbol-272" r="5.5" /><circle cx="1556.5" cy="1915.5" id="symbol-114" r="5.5" /><circle cx="1591.5" cy="1879.5" id="symbol-113" r="5.5" /><circle cx="1616.5" cy="1842.5" id="symbol-112" r="5.5" /><circle cx="1639.5" cy="1780.5" id="symbol-111" r="5.5" /><circle cx="1647.5" cy="1740.5" id="symbol-110" r="5.5" /><circle cx="1649.5" cy="1713.5" id="symbol-109" r="5.5" /><circle cx="1649.5" cy="1659.5" id="symbol-108" r="5.5" /></g><g id="symbols-L"><circle cx="344.5" cy="1868.0" id="symbol-115" r="5.5" /><circle cx="545.5" cy="1868.5" id="symbol-116" r="5.5" /><rect height="10" id="symbol-117" rx="5.0" ry="5.0" width="24" x="652" y="1863" /><circle cx="752.5" cy="1868.5" id="symbol-118" r="5.5" /><circle cx="797.5" cy="1868.5" id="symbol-119" r="5.5" /><circle cx="1067.5" cy="1867.5" id="symbol-120" r="5.5" /><circle cx="1186.5" cy="1873.5" id="symbol-121" r="5.5" /><circle cx="1250.5" cy="1863.5" id="symbol-122" r="5.5" /><circle cx="1297.5" cy="1868.5" id="symbol-123" r="5.5" /><circle cx="1348.5" cy="1886.5" id="symbol-124" r="5.5" /><circle cx="1392.5" cy="1886.5" id="symbol-125" r="5.5" /><circle cx="1480.5" cy="1841.5" id="symbol-126" r="5.5" /><circle cx="1535.5" cy="1839.5" id="symbol-127" r="5.5" /><circle cx="1616.5" cy="1842.5" id="symbol-128" r="5.5" /><circle cx="1685.5" cy="1850.5" id="symbol-129" r="5.5" /><circle cx="1739.5" cy="1891.5" id="symbol-130" r="5.5" /><circle cx="1782.5" cy="1928.5" id="symbol-131" r="5.5" /><rect height="20" id="symbol-132" rx="10.0" ry="10.0" width="23" x="1816" y="1947" /><circle cx="1872.5" cy="1997.5" id="symbol-133" r="5.5" /><circle cx="1946.5" cy="2065.5" id="symbol-134" r="5.5" /><circle cx="1992.5" cy="2108.5" id="symbol-135" r="5.5" /><circle cx="2022.5" cy="2142.5" id="symbol-136" r="5.5" /><circle cx="2051.5" cy="2192.5" id="symbol-137" r="5.5" /><circle cx="2064.5" cy="2275.5" id="symbol-138" r="5.5" /></g><g id="symbols-N"><circle cx="1051.5" cy="1190.5" id="symbol-1" r="5.5" /><circle cx="1052.5" cy="1255.5" id="symbol-2" r="5.5" /><circle cx="1052.5" cy="1312.5" id="symbol-3" r="5.5" /><circle cx="1051.5" cy="1374.5" id="symbol-4" r="5.5" /><circle cx="1048.5" cy="1432.5" id="symbol-5" r="5.5" /><circle cx="1039.5" cy="1478.5" id="symbol-6" r="5.5" /><circle cx="703.5" cy="1536.5" id="symbol-7" r="5.5" /><circle cx="629.5" cy="1535.5" id="symbol-8" r="5.5" /><circle cx="448.5" cy="1557.0" id="symbol-9" r="5.5" /><circle cx="447.5" cy="1629.5" id="symbol-10" r="5.5" /><circle cx="455.5" cy="1675.5" id="symbol-11" r="7.5" /><circle cx="545.5" cy="1736.0" id="symbol-12" r="5.5" /><rect height="10" id="symbol-15" rx="5.0" ry="5.0" width="24" x="652" y="1863" /><circle cx="653.5" cy="2101.0" id="symbol-19" r="5.5" /><circle cx="1274.5" cy="2827.5" id="symbol-35" r="5.5" /><circle cx="1334.5" cy="2855.5" id="symbol-71" r="5.5" /><circle cx="1395.5" cy="2855.5" id="symbol-72" r="5.5" /><circle cx="1457.5" cy="2855.5" id="symbol-73" r="5.5" /><circle cx="1582.5" cy="2855.5" id="symbol-74" r="5.5" /><circle cx="1614.5" cy="2857.5" id="symbol-75" r="5.5" /><circle cx="1655.5" cy="2876.5" id="symbol-76" r="5.5" /><circle cx="1689.5" cy="2910.5" id="symbol-77" r="5.5" /><circle cx="1758.5" cy="2976.5" id="symbol-78" r="5.5" /><circle cx="1779.5" cy="2997.5" id="symbol-79" r="5.5" /></g><g id="symbols-Q"><circle cx="740.5" cy="1251.5" id="symbol-475" r="5.5" /><circle cx="740.5" cy="1311.5" id="symbol-476" r="5.5" /><circle cx="740.5" cy="1420.5" id="symbol-477" r="5.5" /><circle cx="1907.5" cy="3011.5" id="symbol-56" r="5.5" /></g><g id="symbols-S"><circle cx="455.5" cy="1675.5" id="symbol-468" r="7.5" /><circle cx="678.5" cy="1674.5" id="symbol-469" r="7.5" /><circle cx="1480.5" cy="2215.5" id="symbol-139" r="5.5" /><circle cx="1508.5" cy="2324.5" id="symbol-141" r="5.5" /><circle cx="1522.5" cy="2385.5" id="symbol-142" r="5.5" /></g><g id="symbols-R"><circle cx="589.5" cy="1771.5" id="symbol-13" r="5.5" /><circle cx="628.5" cy="1807.5" id="symbol-14" r="5.5" /><circle cx="663.5" cy="1904.5" id="symbol-16" r="5.5" /><circle cx="661.5" cy="2033.5" id="symbol-17" r="5.5" /><circle cx="653.5" cy="2101.0" id="symbol-18" r="5.5" /><circle cx="630.5" cy="2179.5" id="symbol-20" r="5.5" /><circle cx="584.5" cy="2278.5" id="symbol-21" r="5.5" /><circle cx="578.5" cy="2328.5" id="symbol-22" r="5.5" /><circle cx="660.5" cy="2411.5" id="symbol-23" r="5.5" /><circle cx="1112.5" cy="2285.5" id="symbol-24" r="5.5" /><circle cx="1145.5" cy="2270.0" id="symbol-25" r="5.5" /><circle cx="1280.5" cy="2410.5" id="symbol-28" r="5.5" /><circle cx="1280.5" cy="2454.5" id="symbol-29" r="5.5" /><circle cx="1279.5" cy="2540.5" id="symbol-30" r="5.5" /><circle cx="1277.5" cy="2602.5" id="symbol-31" r="5.5" /><circle cx="1276.5" cy="2732.5" id="symbol-33" r="5.5" /><circle cx="1274.5" cy="2784.5" id="symbol-34" r="5.5" /><circle cx="1274.5" cy="2893.5" id="symbol-36" r="5.5" /><circle cx="1282.5" cy="2940.5" id="symbol-37" r="5.5" /><circle cx="1296.5" cy="2989.5" id="symbol-38" r="5.5" /><circle cx="1309.5" cy="3027.5" id="symbol-39" r="5.5" /></g><g id="symbols-W" /><g id="symbols-Z" /></g><g font-size="14" id="texts"><g id="text-SIR"><text id="text-501" x="559.5" y="2606.5">St George SIR</text><text id="text-502" x="564.5" y="2636.5">Tompkinsville SIR</text><text id="text-503" x="580.5" y="2660.5">Stapleton SIR</text><text id="text-504" x="594.5" y="2686.5">Clifton SIR</text><text id="text-505" x="549.5" y="2774.5">Grasmere SIR</text><text id="text-506" x="541.5" y="2804.5">Old Town SIR</text><text id="text-507" x="525.5" y="2836.5">Dongan Hills SIR</text><text id="text-508" x="509.5" y="2862.5">Jefferson Av SIR</text><text id="text-509" x="497.5" y="2877.5">Grant City SIR</text><text id="text-510" x="473.5" y="2905.5">New Dorp SIR</text><text id="text-511" x="449.5" y="2937.5">Oakwood Heights SIR</text><text id="text-512" x="425.5" y="2978.5">Bay Terrace SIR</text><text id="text-513" x="396.5" y="3010.5">Great Kills SIR</text><text id="text-514" x="328.5" y="3050.5">Eltingville SIR</text><text id="text-515" x="297.5" y="3073.5">Annadale SIR</text><text id="text-516" x="261.5" y="3108.5">Huguenot SIR</text><text id="text-517" x="229.5" y="3139.5">Prince's Bay SIR</text><text id="text-518" x="187.5" y="3169.5">Pleasant Plains SIR</text><text id="text-519" x="157.5" y="3183.5">Richmond Valley SIR</text><text id="text-522" x="107.5" y="3203.5">Tottenville SIR</text><text id="text-523" x="79.5" y="3239.5">Arthur Kill SIR</text></g><g id="text-1"><text id="text-293" x="430.5" y="243.5">Van Cortlandt Park - 242 St 1</text><text id="text-294" x="447.5" y="321.5">238 St 1</text><text id="text-295" x="443.5" y="363.5">231 St 1</text><text id="text-296" x="430.5" y="401.5">Marble Hill - 225 St 1</text><text id="text-297" x="317.5" y="490.5">215 St 1</text><text id="text-298" x="297.5" y="532.5">207 St 1</text><text id="text-299" x="276.5" y="581.5">Dyckman St 1</text><text id="text-300" x="267.5" y="616.5">191 St 1</text><text id="text-301" x="258.5" y="667.5">181 St 1</text><text id="text-302" x="257.5" y="780.0">168 St - Washington Hts 1</text><text id="text-303" x="256.5" y="855.5">157 St 1</text><text id="text-304" x="255.5" y="935.5">145 St 1</text><text id="text-305" x="255.5" y="986.5">137 St - City College 1</text><text id="text-306" x="254.5" y="1035.5">125 St 1</text><text id="text-307" x="255.5" y="1087.5">116 St - Columbia University 1</text><text id="text-308" x="261.5" y="1131.5">Cathedral Pkwy 1</text><text id="text-309" x="269.5" y="1200.5">103 St 1</text><text id="text-310" x="269.5" y="1260.0">96 St 123</text><text id="text-311" x="268.5" y="1316.5">86 St 1</text><text id="text-312" x="269.5" y="1366.5">79 St 1</text><text id="text-313" x="278.5" y="1419.0">72 St 123</text><text id="text-314" x="298.5" y="1471.5">66 St - Lincoln Center 1</text><text id="text-315" x="352.5" y="1546.5">59 St - Columbus Circle 1</text><text id="text-316" x="417.5" y="1624.5">50 St 1</text><text id="text-317" x="455.5" y="1675.5">Times Sq - 42 St 123</text><text id="text-318" x="449.5" y="1733.0">34 St - Penn Station 123</text><text id="text-319" x="449.5" y="1771.5">28 St 1</text><text id="text-320" x="448.5" y="1806.5">23 St 1</text><text id="text-321" x="449.5" y="1839.5">18 St 1</text><text id="text-322" x="449.5" y="1877.0">14 St 123</text><text id="text-323" x="455.5" y="1954.5">Christopher St - Sheridan Sq 1</text><text id="text-324" x="487.5" y="2028.5">Houston St 1</text><text id="text-325" x="510.5" y="2091.5">Canal St 1</text><text id="text-326" x="517.5" y="2126.5">Franklin St 1</text><text id="text-327" x="522.5" y="2167.0">Chambers St 123</text><text id="text-328" x="523.0" y="2278.0">Cortlandt St 1</text><text id="text-329" x="524.5" y="2328.5">Rector St 1</text><text id="text-330" x="649.5" y="2420.5">South Ferry 1</text></g><g id="text-3"><text id="text-436" x="469.5" y="907.5">Harlem - 148 St 3</text><text id="text-437" x="532.5" y="936.5">145 St 3</text><text id="text-438" x="534.5" y="995.5">135 St 23</text><text id="text-439" x="533.5" y="1045.5">125 St 23</text><text id="text-440" x="533.5" y="1089.5">116 St 23</text><text id="text-441" x="533.5" y="1132.5">Central Park North (110 St) 23</text><text id="text-331" x="596.5" y="2206.0">Park Pl 23</text><text id="text-332" x="696.5" y="2269.5">Fulton St 23</text><text id="text-333" x="695.5" y="2311.5">Wall St 23</text><text id="text-334" x="1032.5" y="2277.5">Clark St 23</text><text id="text-335" x="1127.5" y="2296.0">Borough Hall 23</text><text id="text-336" x="1196.5" y="2291.5">Hoyt St 23</text><text id="text-337" x="1253.5" y="2298.0">Nevins St 2345</text><text id="text-338" x="1323.0" y="2322.0">Atlantic Av - Barclays Ctr 23</text><text id="text-339" x="1372.5" y="2358.5">Bergen St 23</text><text id="text-340" x="1417.5" y="2377.5">Grand Army Plaza 23</text><text id="text-341" x="1489.5" y="2377.5">Eastern Pkwy - Brooklyn Museum 23</text><text id="text-342" x="1537.5" y="2355.0">Franklin Av 2345</text><text id="text-343" x="1603.5" y="2322.5">Nostrand Av 3</text><text id="text-344" x="1678.5" y="2279.5">Kingston Av 3</text><text id="text-345" x="1746.5" y="2233.0">Crown Hts - Utica Av 34</text><text id="text-346" x="1811.5" y="2207.5">Sutter Av - Rutland Rd 3</text><text id="text-347" x="1879.5" y="2178.5">Saratoga Av 3</text><text id="text-348" x="1924.5" y="2137.5">Rockaway Av 3</text><text id="text-349" x="1955.5" y="2111.5">Junius St 3</text><text id="text-350" x="2002.5" y="2067.5">Pennsylvania Av 3</text><text id="text-351" x="2030.5" y="2042.5">Van Siclen Av 3</text><text id="text-352" x="2060.5" y="2013.5">New Lots Av 3</text></g><g id="text-2"><text id="text-416" x="857.5" y="77.5">Wakefield - 241 St 2</text><text id="text-417" x="857.5" y="127.5">Nereid Av 2</text><text id="text-418" x="856.5" y="160.5">233 St 2</text><text id="text-419" x="857.5" y="202.5">225 St 2</text><text id="text-420" x="864.5" y="245.5">219 St 2</text><text id="text-421" x="884.5" y="285.5">Gun Hill Rd 2</text><text id="text-422" x="917.5" y="347.5">Burke Av 2</text><text id="text-423" x="941.5" y="386.5">Allerton Av 2</text><text id="text-424" x="971.5" y="451.5">Pelham Pkwy 2</text><text id="text-425" x="978.5" y="497.5">Bronx Park East 2</text><text id="text-426" x="963.0" y="562.5">E 180 St 25</text><text id="text-427" x="923.5" y="592.5">West Farms Sq - E Tremont Av 25</text><text id="text-428" x="920.5" y="638.5">174 St 25</text><text id="text-429" x="926.5" y="704.5">Freeman St 25</text><text id="text-430" x="928.5" y="761.5">Simpson St 25</text><text id="text-431" x="919.5" y="804.5">Intervale Av 25</text><text id="text-432" x="898.5" y="837.5">Prospect Av 25</text><text id="text-433" x="856.5" y="871.5">Jackson Av 25</text><text id="text-434" x="761.0" y="896.5">3 Av - 149 St 25</text><text id="text-435" x="724.0" y="901.5">149 St - Grand Concourse 25</text><text id="text-353" x="1591.5" y="2374.5">President St 25</text><text id="text-354" x="1616.5" y="2400.5">Sterling St 25</text><text id="text-355" x="1650.5" y="2435.5">Winthrop St 25</text><text id="text-356" x="1686.5" y="2471.5">Church Av 25</text><text id="text-357" x="1706.5" y="2493.5">Beverly Rd 25</text><text id="text-358" x="1729.5" y="2517.5">Newkirk Av 25</text><text id="text-359" x="1781.5" y="2572.5">Flatbush Av - Brooklyn College 25</text></g><g id="text-5"><text id="text-442" x="1029.5" y="125.5">Eastchester - Dyre Av 5</text><text id="text-443" x="1026.5" y="176.5">Baychester Av 5</text><text id="text-444" x="1022.5" y="282.5">Gun Hill Rd 5</text><text id="text-445" x="1020.5" y="396.5">Pelham Pkwy 5</text><text id="text-446" x="1016.5" y="451.5">Morris Park 5</text><text id="text-391" x="696.5" y="955.5">138 St - Grand Concourse 45</text><text id="text-392" x="686.5" y="1046.0">125 St 456</text><text id="text-397" x="685.5" y="1312.0">86 St 456</text><text id="text-400" x="685.5" y="1545.0">59 St 456</text><text id="text-402" x="678.5" y="1674.5">Grand Central - 42 St 456</text><text id="text-406" x="664.0" y="1868.0">14 St - Union Sq 456</text><text id="text-411" x="689.5" y="2180.0">Brooklyn Bridge - City Hall 456</text><text id="text-412" x="655.5" y="2263.0">Fulton St 45</text><text id="text-413" x="637.5" y="2312.0">Wall St 45</text><text id="text-414" x="626.5" y="2398.0">Bowling Green 45</text><text id="text-415" x="1127.5" y="2296.0">Borough Hall 45</text></g><g id="text-4"><text id="text-378" x="695.5" y="251.5">Woodlawn 4</text><text id="text-379" x="692.5" y="312.5">Mosholu Pkwy 4</text><text id="text-380" x="687.5" y="373.5">Bedford Park Blvd - Lehman College 4</text><text id="text-381" x="675.5" y="440.5">Kingsbridge Rd 4</text><text id="text-382" x="668.5" y="498.5">Fordham Rd 4</text><text id="text-383" x="667.5" y="531.5">183 St 4</text><text id="text-384" x="667.5" y="567.5">Burnside Av 4</text><text id="text-385" x="668.5" y="613.5">176 St 4</text><text id="text-386" x="668.5" y="652.5">Mt Eden Av 4</text><text id="text-387" x="668.5" y="691.5">170 St 4</text><text id="text-388" x="667.5" y="743.5">167 St 4</text><text id="text-389" x="678.0" y="820.0">161 St - Yankee Stadium 4</text><text id="text-390" x="691.5" y="876.0">149 St - Grand Concourse 4</text></g><g id="text-7"><text id="text-447" x="1656.5" y="1072.0">Flushing - Main St 7</text><text id="text-448" x="1603.5" y="1153.0">Mets - Willets Point 7</text><text id="text-449" x="1571.5" y="1200.5">111 St 7</text><text id="text-450" x="1530.5" y="1255.5">103 St - Corona Plaza 7</text><text id="text-451" x="1499.5" y="1285.0">Junction Blvd 7</text><text id="text-452" x="1469.5" y="1311.5">90 St - Elmhurst Av 7</text><text id="text-453" x="1419.5" y="1354.5">82 St - Jackson Hts 7</text><text id="text-454" x="1389.5" y="1378.5">74 St - Broadway 7</text><text id="text-455" x="1330.5" y="1427.5">69 St 7</text><text id="text-456" x="1302.5" y="1451.0">Woodside - 61 St 7</text><text id="text-457" x="1266.5" y="1477.5">52 St 7</text><text id="text-458" x="1233.5" y="1496.5">46 St 7</text><text id="text-459" x="1175.5" y="1520.5">40 St 7</text><text id="text-460" x="1108.5" y="1526.5">33 St 7</text><text id="text-461" x="1006.5" y="1515.0">Queensboro Plaza NW7</text><text id="text-462" x="992.5" y="1608.5">Court Sq 7</text><text id="text-463" x="997.5" y="1682.5">Hunters Point Av 7</text><text id="text-464" x="934.5" y="1680.5">Vernon Blvd - Jackson Av 7</text><text id="text-465" x="678.5" y="1674.5">Grand Central - 42 St 7</text><text id="text-466" x="629.5" y="1680.5">5 Av 7</text><text id="text-467" x="455.5" y="1675.5">Times Sq - 42 St 7</text><text id="text-471" x="267.5" y="1733.5">34 St - 11 Av 7</text></g><g id="text-6"><text id="text-360" x="1262.5" y="334.5">Pelham Bay Park 6</text><text id="text-361" x="1258.5" y="380.5">Buhre Av 6</text><text id="text-362" x="1245.5" y="429.5">Middletown Rd 6</text><text id="text-363" x="1216.5" y="488.5">Westchester Sq - E Tremont Av 6</text><text id="text-364" x="1182.5" y="534.5">Zerega Av 6</text><text id="text-365" x="1151.5" y="566.5">Castle Hill Av 6</text><text id="text-366" x="1116.5" y="599.0">Parkchester 6</text><text id="text-367" x="1077.5" y="632.5">St Lawrence Av 6</text><text id="text-368" x="1034.5" y="671.5">Morrison Av- Sound View 6</text><text id="text-369" x="1002.5" y="707.5">Elder Av 6</text><text id="text-370" x="988.5" y="740.5">Whitlock Av 6</text><text id="text-371" x="973.5" y="804.0">Hunts Point Av 6</text><text id="text-372" x="965.5" y="845.5">Longwood Av 6</text><text id="text-373" x="955.5" y="889.5">E 149 St 6</text><text id="text-374" x="941.5" y="928.5">E 143 St - St Mary's St 6</text><text id="text-375" x="903.5" y="959.5">Cypress Av 6</text><text id="text-376" x="835.5" y="970.5">Brook Av 6</text><text id="text-377" x="745.0" y="971.5">3 Av - 138 St 6</text><text id="text-393" x="685.5" y="1089.5">116 St 6</text><text id="text-394" x="685.5" y="1134.5">110 St 6</text><text id="text-395" x="685.5" y="1204.5">103 St 6</text><text id="text-396" x="684.5" y="1252.5">96 St 6</text><text id="text-398" x="685.5" y="1392.5">77 St 6</text><text id="text-399" x="685.5" y="1455.5">68 St - Hunter College 6</text><text id="text-401" x="684.5" y="1608.5">51 St 6</text><text id="text-403" x="664.5" y="1740.5">33 St 6</text><text id="text-404" x="663.5" y="1769.5">28 St 6</text><text id="text-405" x="664.5" y="1806.5">23 St 6</text><text id="text-407" x="676.5" y="1907.5">Astor Pl 6</text><text id="text-408" x="687.5" y="2001.5">Bleecker St 6</text><text id="text-409" x="691.5" y="2052.5">Spring St 6</text><text id="text-410" x="693.5" y="2106.5">Canal St 6</text></g><g id="text-A"><text id="text-192" x="2193.5" y="1736.5">Rockaway Blvd A</text><text id="text-196" x="2309.5" y="1855.5">Aqueduct Racetrack A</text><text id="text-197" x="2307.5" y="1892.5">Aqueduct - N Conduit Av A</text><text id="text-198" x="2330.5" y="1966.5">Howard Beach - JFK Airport A</text><text id="text-199" x="2446.5" y="2325.5">Broad Channel A</text><text id="text-204" x="2560.5" y="2376.5">Beach 67 St A</text><text id="text-205" x="2581.5" y="2345.5">Beach 60 St A</text><text id="text-206" x="2614.5" y="2313.5">Beach 44 St A</text><text id="text-207" x="2637.5" y="2277.5">Beach 36 St A</text><text id="text-208" x="2649.5" y="2238.5">Beach 25 St A</text><text id="text-209" x="2654.5" y="2213.5">Far Rockaway - Mott Av A</text><text id="text-200" x="2500.5" y="2484.5">Beach 90 St A</text><text id="text-201" x="2485.5" y="2530.5">Beach 98 St A</text><text id="text-202" x="2461.5" y="2575.5">Beach 105 St A</text><text id="text-203" x="2436.5" y="2618.5">Rockaway Park - Beach 116 St A</text><text id="text-143" x="267.5" y="533.5">Inwood - 207 St A</text><text id="text-144" x="230.5" y="580.5">Dyckman St A</text><text id="text-145" x="204.5" y="624.5">190 St A</text><text id="text-146" x="197.5" y="667.5">181 St A</text><text id="text-147" x="216.5" y="725.5">175 St A</text><text id="text-148" x="257.5" y="780.0">168 St AC</text><text id="text-151" x="341.5" y="934.5">145 St ACBD</text><text id="text-153" x="342.5" y="1042.0">125 St ABCD</text><text id="text-161" x="341.5" y="1546.0">59 St - Columbus Circle ABCD</text><text id="text-163" x="338.5" y="1669.0">42 St - Port Authority Bus Terminal ACE</text><text id="text-164" x="338.5" y="1733.0">34 St - Penn Station ACE</text><text id="text-166" x="344.5" y="1868.0">14 St ACE</text><text id="text-167" x="547.0" y="1960.5">W 4 St ACEBDFM</text><text id="text-169" x="549.5" y="2095.0">Canal St ACE</text><text id="text-170" x="555.5" y="2167.0">Chambers St AC</text><text id="text-172" x="672.5" y="2256.0">Fulton St AC</text><text id="text-173" x="1047.5" y="2211.0">High St AC</text><text id="text-174" x="1145.5" y="2270.0">Jay St - MetroTech ACF</text><text id="text-175" x="1219.5" y="2335.0">Hoyt - Schermerhorn Sts ACG</text><text id="text-179" x="1532.5" y="2186.0">Nostrand Av AC</text><text id="text-181" x="1656.5" y="2097.0">Utica Av AC</text><text id="text-184" x="1827.5" y="1957.0">Broadway Jct AC</text><text id="text-188" x="2076.5" y="1901.0">Euclid Av AC</text><text id="text-189" x="2110.5" y="1855.5">Grant Av A</text><text id="text-190" x="2138.5" y="1801.5">80 St A</text><text id="text-191" x="2166.5" y="1759.5">88 St A</text><text id="text-193" x="2253.5" y="1687.5">104 St A</text><text id="text-194" x="2293.5" y="1652.5">111 St A</text><text id="text-195" x="2334.5" y="1617.5">Ozone Park - Lefferts Blvd A</text></g><g id="text-C"><text id="text-149" x="286.5" y="812.5">163 St - Amsterdam Av C</text><text id="text-150" x="328.5" y="865.5">155 St C</text><text id="text-152" x="341.5" y="996.5">135 St BC</text><text id="text-154" x="341.5" y="1089.5">116 St BC</text><text id="text-155" x="341.5" y="1131.5">Cathedral Pkwy (110 St) BC</text><text id="text-156" x="341.5" y="1199.5">103 St BC</text><text id="text-157" x="341.5" y="1259.5">96 St BC</text><text id="text-158" x="341.5" y="1316.5">86 St BC</text><text id="text-159" x="341.5" y="1355.5">81 St - Museum of Natural History BC</text><text id="text-160" x="341.5" y="1420.5">72 St BC</text><text id="text-162" x="338.5" y="1623.5">50 St CE</text><text id="text-165" x="337.5" y="1806.5">23 St CE</text><text id="text-168" x="548.5" y="2052.5">Spring St CE</text><text id="text-176" x="1318.5" y="2279.5">Lafayette Av C</text><text id="text-177" x="1383.5" y="2255.5">Clinton - Washington Avs C</text><text id="text-178" x="1480.5" y="2215.5">Franklin Av C</text><text id="text-180" x="1573.5" y="2156.5">Kingston - Throop Avs C</text><text id="text-182" x="1715.5" y="2053.5">Ralph Av C</text><text id="text-183" x="1771.5" y="2012.5">Rockaway Av C</text><text id="text-185" x="1938.5" y="1972.5">Liberty Av C</text><text id="text-186" x="1982.5" y="1969.5">Van Siclen Av C</text><text id="text-187" x="2035.5" y="1940.5">Shepherd Av C</text></g><g id="text-B"><text id="text-277" x="435.5" y="1594.0">7 Av BDE</text><text id="text-225" x="546.5" y="1636.0">47-50 Sts - Rockefeller Ctr BDFM</text><text id="text-226" x="546.5" y="1687.0">42 St - Bryant Pk BDFM</text><text id="text-227" x="545.5" y="1736.0">34 St - Herald Sq BDFM</text><text id="text-230" x="681.5" y="2017.0">Broadway-Lafayette St BDFM</text><text id="text-231" x="776.5" y="2089.0">Grand St BD</text><text id="text-26" x="1254.5" y="2260.0">DeKalb Av BQR</text><text id="text-40" x="1323.0" y="2322.0">Atlantic Av - Barclays Ctr BQ</text><text id="text-41" x="1411.5" y="2353.0">7 Av BQ</text><text id="text-42" x="1534.5" y="2442.5">Prospect Park BQ</text><text id="text-43" x="1560.5" y="2519.5">Parkside Av BQ</text><text id="text-44" x="1584.5" y="2573.0">Church Av BQ</text><text id="text-45" x="1597.5" y="2599.5">Beverley Rd BQ</text><text id="text-46" x="1617.5" y="2621.5">Cortelyou Rd BQ</text><text id="text-47" x="1648.5" y="2647.0">Newkirk Plaza BQ</text><text id="text-48" x="1669.5" y="2675.5">Avenue H BQ</text><text id="text-49" x="1717.5" y="2724.5">Avenue J BQ</text><text id="text-50" x="1760.5" y="2770.5">Avenue M BQ</text><text id="text-51" x="1816.5" y="2823.0">Kings Hwy BQ</text><text id="text-52" x="1863.5" y="2879.5">Avenue U BQ</text><text id="text-53" x="1891.5" y="2909.5">Neck Rd BQ</text><text id="text-54" x="1918.5" y="2932.0">Sheepshead Bay BQ</text><text id="text-55" x="1929.5" y="2973.0">Brighton Beach BQ</text></g><g id="text-E"><text id="text-278" x="2377.5" y="1412.0">Jamaica Center - Parsons/Archer EJZ</text><text id="text-279" x="2332.5" y="1456.0">Sutphin Blvd - Archer Av - JFK Airport EJZ</text><text id="text-280" x="2225.5" y="1445.5">Jamaica - Van Wyck E</text><text id="text-258" x="2178.5" y="1409.5">Briarwood - Van Wyck Blvd EF</text><text id="text-259" x="2088.5" y="1412.0">Kew Gardens - Union Tpke EF</text><text id="text-260" x="1987.5" y="1414.5">75 Av EF</text><text id="text-261" x="1845.5" y="1412.0">Forest Hills - 71 Av EFMR</text><text id="text-267" x="1394.0" y="1414.0">Jackson Hts - Roosevelt Av EFMR</text><text id="text-273" x="1031.0" y="1545.0">Queens Plaza EMR</text><text id="text-274" x="974.5" y="1591.0">Court Sq EM</text><text id="text-275" x="702.5" y="1592.0">Lexington Av/53 St EM</text><text id="text-276" x="629.5" y="1593.0">5 Av/53 St EM</text><text id="text-171" x="558.5" y="2234.5">World Trade Center E</text></g><g id="text-D"><text id="text-210" x="785.5" y="308.0">Norwood - 205 St D</text><text id="text-211" x="714.5" y="368.0">Bedford Park Blvd D</text><text id="text-212" x="711.5" y="431.0">Kingsbridge Rd D</text><text id="text-213" x="710.5" y="485.0">Fordham Rd D</text><text id="text-214" x="709.5" y="536.5">182-183 Sts D</text><text id="text-215" x="711.5" y="585.0">Tremont Av D</text><text id="text-216" x="710.5" y="631.5">174-175 Sts D</text><text id="text-217" x="711.5" y="689.5">170 St D</text><text id="text-218" x="707.5" y="742.5">167 St D</text><text id="text-219" x="678.0" y="820.0">161 St - Yankee Stadium D</text><text id="text-220" x="384.5" y="865.5">155 St D</text><text id="text-27" x="1285.5" y="2349.5">Atlantic Av - Barclays Ctr DNR</text><text id="text-32" x="1280.5" y="2685.5">36 St DNR</text><text id="text-59" x="1380.5" y="2720.5">9 Av D</text><text id="text-60" x="1411.5" y="2738.5">Fort Hamilton Pkwy D</text><text id="text-61" x="1440.5" y="2778.5">50 St D</text><text id="text-62" x="1459.5" y="2807.5">55 St D</text><text id="text-63" x="1496.5" y="2871.5">62 St D</text><text id="text-64" x="1522.5" y="2918.5">71 St D</text><text id="text-65" x="1549.5" y="2959.5">79 St D</text><text id="text-66" x="1574.5" y="2985.5">18 Av D</text><text id="text-67" x="1603.5" y="2996.5">20 Av D</text><text id="text-68" x="1640.5" y="2997.5">Bay Pkwy D</text><text id="text-69" x="1711.5" y="3004.5">25 Av D</text><text id="text-70" x="1748.5" y="3037.5">Bay 50 St D</text><text id="text-58" x="1798.5" y="3085.5">Coney Island - Stillwell Av DFNQ</text></g><g id="text-G"><text id="text-281" x="992.5" y="1608.5">Court Sq G</text><text id="text-282" x="981.5" y="1663.5">21 St G</text><text id="text-283" x="1071.5" y="1800.5">Greenpoint Av G</text><text id="text-284" x="1123.5" y="1844.5">Nassau Av G</text><text id="text-285" x="1182.5" y="1894.5">Metropolitan Av G</text><text id="text-286" x="1273.5" y="1970.5">Broadway G</text><text id="text-287" x="1329.5" y="2017.5">Flushing Av G</text><text id="text-288" x="1391.5" y="2068.5">Myrtle - Willoughby Avs G</text><text id="text-289" x="1434.5" y="2142.5">Bedford - Nostrand Avs G</text><text id="text-290" x="1390.5" y="2186.5">Classon Av G</text><text id="text-291" x="1351.5" y="2225.5">Clinton - Washington Avs G</text><text id="text-292" x="1308.5" y="2268.5">Fulton St G</text><text id="text-236" x="1154.5" y="2388.5">Bergen St FG</text><text id="text-237" x="1155.5" y="2430.5">Carroll St FG</text><text id="text-238" x="1202.5" y="2464.5">Smith - 9 Sts FG</text><text id="text-239" x="1262.5" y="2465.5">4 Av FG</text><text id="text-240" x="1383.5" y="2469.5">7 Av FG</text><text id="text-241" x="1428.5" y="2497.5">15 St - Prospect Park FG</text><text id="text-242" x="1496.5" y="2597.5">Fort Hamilton Pkwy FG</text><text id="text-243" x="1516.5" y="2652.5">Church Av FG</text></g><g id="text-F"><text id="text-254" x="2370.5" y="1238.5">Jamaica - 179 St F</text><text id="text-255" x="2329.5" y="1283.5">169 St F</text><text id="text-256" x="2297.5" y="1319.5">Parsons Blvd F</text><text id="text-257" x="2260.5" y="1359.5">Sutphin Blvd F</text><text id="text-221" x="977.5" y="1490.5">21 St - Queensbridge F</text><text id="text-222" x="845.5" y="1490.5">Roosevelt Island F</text><text id="text-223" x="676.5" y="1486.5">Lexington Av/63 St FQ</text><text id="text-224" x="545.5" y="1559.5">57 St F</text><text id="text-228" x="546.5" y="1805.5">23 St FM</text><text id="text-229" x="545.5" y="1868.5">14 St FM</text><text id="text-232" x="782.5" y="2015.5">2 Av F</text><text id="text-233" x="838.0" y="2066.5">Delancey St F</text><text id="text-234" x="853.5" y="2101.5">East Broadway F</text><text id="text-235" x="1098.5" y="2145.5">York St F</text><text id="text-244" x="1561.5" y="2709.5">Ditmas Av F</text><text id="text-245" x="1583.5" y="2731.5">18 Av F</text><text id="text-246" x="1608.5" y="2756.5">Avenue I F</text><text id="text-247" x="1639.5" y="2789.5">Bay Pkwy F</text><text id="text-248" x="1696.5" y="2847.5">Avenue N F</text><text id="text-249" x="1713.5" y="2866.5">Avenue P F</text><text id="text-250" x="1737.5" y="2891.5">Kings Hwy F</text><text id="text-251" x="1788.5" y="2943.5">Avenue U F</text><text id="text-252" x="1826.5" y="2982.5">Avenue X F</text><text id="text-253" x="1847.5" y="3008.5">Neptune Av F</text><text id="text-57" x="1837.5" y="3059.5">W 8 St - NY Aquarium FQ</text></g><g id="text-J"><text id="text-80" x="2168.5" y="1546.5">121 St JZ</text><text id="text-81" x="2131.5" y="1582.5">111 St J</text><text id="text-82" x="2089.5" y="1623.5">104 St JZ</text><text id="text-83" x="2040.5" y="1671.0">Woodhaven Blvd JZ</text><text id="text-84" x="2006.5" y="1703.5">85 St - Forest Pkwy J</text><text id="text-85" x="1976.5" y="1732.5">75 St JZ</text><text id="text-86" x="1960.5" y="1775.5">Cypress Hills J</text><text id="text-87" x="1977.5" y="1814.0">Crescent St JZ</text><text id="text-88" x="1972.5" y="1851.5">Norwood Av JZ</text><text id="text-89" x="1947.5" y="1882.5">Cleveland St J</text><text id="text-90" x="1917.5" y="1910.5">Van Siclen Av JZ</text><text id="text-91" x="1873.5" y="1942.0">Alabama Av J</text><text id="text-92" x="1827.5" y="1957.0">Broadway Jct JZ</text><text id="text-93" x="1743.5" y="1960.5">Chauncey St JZ</text><text id="text-94" x="1693.5" y="1963.5">Halsey St J</text><text id="text-95" x="1642.5" y="1966.5">Gates Av JZ</text><text id="text-96" x="1565.5" y="1971.5">Kosciuszko St J</text><text id="text-97" x="1478.5" y="1972.0">Myrtle Av JMZ</text><text id="text-98" x="1357.5" y="1977.5">Flushing Av JM</text><text id="text-99" x="1316.5" y="1980.5">Lorimer St JM</text><text id="text-100" x="1252.5" y="1985.5">Hewes St JM</text><text id="text-101" x="1179.5" y="1991.0">Marcy Av JMZ</text><text id="text-102" x="838.0" y="2066.5">Essex St JMZ</text><text id="text-103" x="753.5" y="2072.5">Bowery JZ</text><text id="text-104" x="703.5" y="2106.5">Canal St JZ</text><text id="text-105" x="705.5" y="2168.5">Chambers St JZ</text><text id="text-106" x="682.5" y="2248.5">Fulton St JZ</text><text id="text-107" x="672.5" y="2346.5">Broad St JZ</text></g><g id="text-M"><text id="text-262" x="1767.5" y="1410.5">67 Av MR</text><text id="text-263" x="1686.5" y="1418.5">63 Dr - Rego Park MR</text><text id="text-264" x="1594.5" y="1426.5">Woodhaven Blvd MR</text><text id="text-265" x="1521.5" y="1429.5">Grand Av - Newtown MR</text><text id="text-266" x="1444.5" y="1417.5">Elmhurst Av MR</text><text id="text-268" x="1328.5" y="1390.5">65 St MR</text><text id="text-269" x="1259.5" y="1379.5">Northern Blvd MR</text><text id="text-270" x="1192.5" y="1376.5">46 St MR</text><text id="text-271" x="1143.5" y="1386.5">Steinway St MR</text><text id="text-272" x="1090.5" y="1460.5">36 St MR</text><text id="text-114" x="1556.5" y="1915.5">Central Av M</text><text id="text-113" x="1591.5" y="1879.5">Knickerbocker Av M</text><text id="text-112" x="1616.5" y="1842.5">Myrtle - Wyckoff Avs M</text><text id="text-111" x="1639.5" y="1780.5">Seneca Av M</text><text id="text-110" x="1647.5" y="1740.5">Forest Av M</text><text id="text-109" x="1649.5" y="1713.5">Fresh Pond Rd M</text><text id="text-108" x="1649.5" y="1659.5">Middle Village - Metropolitan Av M</text></g><g id="text-L"><text id="text-115" x="344.5" y="1868.0">8 Av L</text><text id="text-116" x="545.5" y="1868.5">6 Av L</text><text id="text-117" x="664.0" y="1868.0">Union Sq - 14 St L</text><text id="text-118" x="752.5" y="1868.5">3 Av L</text><text id="text-119" x="797.5" y="1868.5">1 Av L</text><text id="text-120" x="1067.5" y="1867.5">Bedford Av L</text><text id="text-121" x="1186.5" y="1873.5">Lorimer St L</text><text id="text-122" x="1250.5" y="1863.5">Graham Av L</text><text id="text-123" x="1297.5" y="1868.5">Grand St L</text><text id="text-124" x="1348.5" y="1886.5">Montrose Av L</text><text id="text-125" x="1392.5" y="1886.5">Morgan Av L</text><text id="text-126" x="1480.5" y="1841.5">Jefferson St L</text><text id="text-127" x="1535.5" y="1839.5">DeKalb Av L</text><text id="text-128" x="1616.5" y="1842.5">Myrtle - Wyckoff Avs L</text><text id="text-129" x="1685.5" y="1850.5">Halsey St L</text><text id="text-130" x="1739.5" y="1891.5">Wilson Av L</text><text id="text-131" x="1782.5" y="1928.5">Bushwick Av - Aberdeen St L</text><text id="text-132" x="1827.5" y="1957.0">Broadway Jct L</text><text id="text-133" x="1872.5" y="1997.5">Atlantic Av L</text><text id="text-134" x="1946.5" y="2065.5">Sutter Av L</text><text id="text-135" x="1992.5" y="2108.5">Livonia Av L</text><text id="text-136" x="2022.5" y="2142.5">New Lots Av L</text><text id="text-137" x="2051.5" y="2192.5">E 105 St L</text><text id="text-138" x="2064.5" y="2275.5">Canarsie - Rockaway Pkwy L</text></g><g id="text-N"><text id="text-1" x="1051.5" y="1190.5">Astoria - Ditmars Blvd NW</text><text id="text-2" x="1052.5" y="1255.5">Astoria Blvd NW</text><text id="text-3" x="1052.5" y="1312.5">30 Av NW</text><text id="text-4" x="1051.5" y="1374.5">Broadway NW</text><text id="text-5" x="1048.5" y="1432.5">36 Av NW</text><text id="text-6" x="1039.5" y="1478.5">39 Av NW</text><text id="text-7" x="703.5" y="1536.5">Lexington Av/59 St NWR</text><text id="text-8" x="629.5" y="1535.5">5 Av/59 St NWR</text><text id="text-9" x="448.5" y="1557.0">57 St - 7 Av NQRW</text><text id="text-10" x="447.5" y="1629.5">49 St NRW</text><text id="text-11" x="455.5" y="1675.5">Times Sq - 42 St NQRW</text><text id="text-12" x="545.5" y="1736.0">34 St - Herald Sq NQRW</text><text id="text-15" x="664.0" y="1868.0">14 St - Union Sq NQRW</text><text id="text-19" x="653.5" y="2101.0">Canal St NQ</text><text id="text-35" x="1274.5" y="2827.5">59 St NR</text><text id="text-71" x="1334.5" y="2855.5">8 Av N</text><text id="text-72" x="1395.5" y="2855.5">Fort Hamilton Pkwy N</text><text id="text-73" x="1457.5" y="2855.5">New Utrecht Av N</text><text id="text-74" x="1582.5" y="2855.5">18 Av N</text><text id="text-75" x="1614.5" y="2857.5">20 Av N</text><text id="text-76" x="1655.5" y="2876.5">Bay Pkwy N</text><text id="text-77" x="1689.5" y="2910.5">Kings Hwy N</text><text id="text-78" x="1758.5" y="2976.5">Avenue U N</text><text id="text-79" x="1779.5" y="2997.5">86 St N</text></g><g id="text-Q"><text id="text-475" x="740.5" y="1251.5">96 St Q</text><text id="text-476" x="740.5" y="1311.5">86 St Q</text><text id="text-477" x="740.5" y="1420.5">72 St Q</text><text id="text-56" x="1907.5" y="3011.5">Ocean Pkwy Q</text></g><g id="text-S"><text id="text-468" x="455.5" y="1675.5">Times Sq - 42 St S</text><text id="text-469" x="678.5" y="1674.5">Grand Central - 42 St S</text><text id="text-139" x="1480.5" y="2215.5">Franklin Av S</text><text id="text-141" x="1508.5" y="2324.5">Park Pl S</text><text id="text-142" x="1522.5" y="2385.5">Botanic Garden S</text></g><g id="text-R"><text id="text-13" x="589.5" y="1771.5">28 St RW</text><text id="text-14" x="628.5" y="1807.5">23 St RW</text><text id="text-16" x="663.5" y="1904.5">8 St - NYU RW</text><text id="text-17" x="661.5" y="2033.5">Prince St RW</text><text id="text-18" x="653.5" y="2101.0">Canal St RW</text><text id="text-20" x="630.5" y="2179.5">City Hall RW</text><text id="text-21" x="584.5" y="2278.5">Cortlandt St RW</text><text id="text-22" x="578.5" y="2328.5">Rector St RW</text><text id="text-23" x="660.5" y="2411.5">Whitehall St RW</text><text id="text-24" x="1112.5" y="2285.5">Court St R</text><text id="text-25" x="1145.5" y="2270.0">Jay St - MetroTech R</text><text id="text-28" x="1280.5" y="2410.5">Union St R</text><text id="text-29" x="1280.5" y="2454.5">9 St R</text><text id="text-30" x="1279.5" y="2540.5">Prospect Av R</text><text id="text-31" x="1277.5" y="2602.5">25 St R</text><text id="text-33" x="1276.5" y="2732.5">45 St R</text><text id="text-34" x="1274.5" y="2784.5">53 St R</text><text id="text-36" x="1274.5" y="2893.5">Bay Ridge Av R</text><text id="text-37" x="1282.5" y="2940.5">77 St R</text><text id="text-38" x="1296.5" y="2989.5">86 St R</text><text id="text-39" x="1309.5" y="3027.5">Bay Ridge - 95 St R</text></g><g id="text-W" /><g id="text-Z" /></g></svg>